<?xml version="1.0" encoding="utf-8" standalone="no"?>
<!DOCTYPE svg PUBLIC "-//W3C//DTD SVG 1.1//EN"
  "http://www.w3.org/Graphics/SVG/1.1/DTD/svg11.dtd">
<svg xmlns:xlink="http://www.w3.org/1999/xlink" width="460.8pt" height="345.6pt" viewBox="0 0 460.8 345.6" xmlns="http://www.w3.org/2000/svg" version="1.1">
 <metadata>
  <rdf:RDF xmlns:dc="http://purl.org/dc/elements/1.1/" xmlns:cc="http://creativecommons.org/ns#" xmlns:rdf="http://www.w3.org/1999/02/22-rdf-syntax-ns#">
   <cc:Work>
    <dc:type rdf:resource="http://purl.org/dc/dcmitype/StillImage"/>
    <dc:date>2024-03-21T23:06:25.847143</dc:date>
    <dc:format>image/svg+xml</dc:format>
    <dc:creator>
     <cc:Agent>
      <dc:title>Matplotlib v3.8.1, https://matplotlib.org/</dc:title>
     </cc:Agent>
    </dc:creator>
   </cc:Work>
  </rdf:RDF>
 </metadata>
 <defs>
  <style type="text/css">*{stroke-linejoin: round; stroke-linecap: butt}</style>
 </defs>
 <g id="figure_1">
  <g id="patch_1">
   <path d="M 0 345.6 
L 460.8 345.6 
L 460.8 0 
L 0 0 
z
" style="fill: #ffffff; stroke: #ffffff; stroke-linejoin: miter"/>
  </g>
  <g id="axes_1">
   <g id="patch_2">
    <path d="M 43.555296 265.078521 
L 456.192 265.078521 
L 456.192 36.715908 
L 43.555296 36.715908 
z
" style="fill: #ffffff; stroke: #7f7f7f; stroke-linejoin: miter"/>
   </g>
   <g id="matplotlib.axis_1">
    <g id="xtick_1">
     <g id="line2d_1">
      <path d="M 62.31151 265.078521 
L 62.31151 36.715908 
" clip-path="url(#p79e14357ff)" style="fill: none; stroke: #e5e5e5; stroke-width: 0.8"/>
     </g>
     <g id="line2d_2">
      <path d="M 62.31151 265.078521 
" style="fill: none; stroke: #000000; stroke-width: 1.5"/>
      <defs>
       <path id="m0438beab9e" d="M 0 0 
L 0 2.75 
" style="stroke: #333333"/>
      </defs>
      <g>
       <use xlink:href="#m0438beab9e" x="62.31151" y="265.078521" style="stroke: #333333"/>
      </g>
     </g>
     <g id="text_1">
      <!-- $\mathdefault{0}$ -->
      <g style="fill: #4d4d4d" transform="translate(59.982711 275.916805) scale(0.088 -0.088)">
       <defs>
        <path id="CMR17-30" d="M 2688 2025 
C 2688 2416 2682 3080 2413 3591 
C 2176 4039 1798 4198 1466 4198 
C 1158 4198 768 4058 525 3597 
C 269 3118 243 2524 243 2025 
C 243 1661 250 1106 448 619 
C 723 -39 1216 -128 1466 -128 
C 1760 -128 2208 -7 2470 600 
C 2662 1042 2688 1559 2688 2025 
z
M 1466 -26 
C 1056 -26 813 325 723 812 
C 653 1188 653 1738 653 2096 
C 653 2588 653 2997 736 3387 
C 858 3929 1216 4096 1466 4096 
C 1728 4096 2067 3923 2189 3400 
C 2272 3036 2278 2607 2278 2096 
C 2278 1680 2278 1169 2202 792 
C 2067 95 1690 -26 1466 -26 
z
" transform="scale(0.015625)"/>
       </defs>
       <use xlink:href="#CMR17-30" transform="scale(0.996264)"/>
      </g>
     </g>
    </g>
    <g id="xtick_2">
     <g id="line2d_3">
      <path d="M 196.284466 265.078521 
L 196.284466 36.715908 
" clip-path="url(#p79e14357ff)" style="fill: none; stroke: #e5e5e5; stroke-width: 0.8"/>
     </g>
     <g id="line2d_4">
      <path d="M 196.284466 265.078521 
" style="fill: none; stroke: #000000; stroke-width: 1.5"/>
      <g>
       <use xlink:href="#m0438beab9e" x="196.284466" y="265.078521" style="stroke: #333333"/>
      </g>
     </g>
     <g id="text_2">
      <!-- $\mathdefault{50}$ -->
      <g style="fill: #4d4d4d" transform="translate(191.626868 275.916805) scale(0.088 -0.088)">
       <defs>
        <path id="CMR17-35" d="M 730 3692 
C 794 3666 1056 3584 1325 3584 
C 1920 3584 2246 3911 2432 4100 
C 2432 4157 2432 4192 2394 4192 
C 2387 4192 2374 4192 2323 4163 
C 2099 4058 1837 3973 1517 3973 
C 1325 3973 1037 3999 723 4139 
C 653 4171 640 4171 634 4171 
C 602 4171 595 4164 595 4037 
L 595 2203 
C 595 2089 595 2057 659 2057 
C 691 2057 704 2070 736 2114 
C 941 2401 1222 2522 1542 2522 
C 1766 2522 2246 2382 2246 1289 
C 2246 1085 2246 715 2054 421 
C 1894 159 1645 25 1370 25 
C 947 25 518 320 403 814 
C 429 807 480 795 506 795 
C 589 795 749 840 749 1038 
C 749 1210 627 1280 506 1280 
C 358 1280 262 1190 262 1011 
C 262 454 704 -128 1382 -128 
C 2042 -128 2669 440 2669 1264 
C 2669 2030 2170 2624 1549 2624 
C 1222 2624 947 2503 730 2274 
L 730 3692 
z
" transform="scale(0.015625)"/>
       </defs>
       <use xlink:href="#CMR17-35" transform="scale(0.996264)"/>
       <use xlink:href="#CMR17-30" transform="translate(45.690477 0) scale(0.996264)"/>
      </g>
     </g>
    </g>
    <g id="xtick_3">
     <g id="line2d_5">
      <path d="M 330.257422 265.078521 
L 330.257422 36.715908 
" clip-path="url(#p79e14357ff)" style="fill: none; stroke: #e5e5e5; stroke-width: 0.8"/>
     </g>
     <g id="line2d_6">
      <path d="M 330.257422 265.078521 
" style="fill: none; stroke: #000000; stroke-width: 1.5"/>
      <g>
       <use xlink:href="#m0438beab9e" x="330.257422" y="265.078521" style="stroke: #333333"/>
      </g>
     </g>
     <g id="text_3">
      <!-- $\mathdefault{100}$ -->
      <g style="fill: #4d4d4d" transform="translate(323.271025 275.916805) scale(0.088 -0.088)">
       <defs>
        <path id="CMR17-31" d="M 1702 4058 
C 1702 4192 1696 4192 1606 4192 
C 1357 3916 979 3827 621 3827 
C 602 3827 570 3827 563 3808 
C 557 3795 557 3782 557 3648 
C 755 3648 1088 3686 1344 3839 
L 1344 461 
C 1344 236 1331 160 781 160 
L 589 160 
L 589 0 
C 896 0 1216 0 1523 0 
C 1830 0 2150 0 2458 0 
L 2458 160 
L 2266 160 
C 1715 160 1702 230 1702 458 
L 1702 4058 
z
" transform="scale(0.015625)"/>
       </defs>
       <use xlink:href="#CMR17-31" transform="scale(0.996264)"/>
       <use xlink:href="#CMR17-30" transform="translate(45.690477 0) scale(0.996264)"/>
       <use xlink:href="#CMR17-30" transform="translate(91.380954 0) scale(0.996264)"/>
      </g>
     </g>
    </g>
    <g id="xtick_4">
     <g id="line2d_7">
      <path d="M 129.297988 265.078521 
L 129.297988 36.715908 
" clip-path="url(#p79e14357ff)" style="fill: none; stroke: #fafafa"/>
     </g>
    </g>
    <g id="xtick_5">
     <g id="line2d_8">
      <path d="M 263.270944 265.078521 
L 263.270944 36.715908 
" clip-path="url(#p79e14357ff)" style="fill: none; stroke: #fafafa"/>
     </g>
    </g>
    <g id="xtick_6">
     <g id="line2d_9">
      <path d="M 397.243899 265.078521 
L 397.243899 36.715908 
" clip-path="url(#p79e14357ff)" style="fill: none; stroke: #fafafa"/>
     </g>
    </g>
   </g>
   <g id="matplotlib.axis_2">
    <g id="ytick_1">
     <g id="line2d_10">
      <path d="M 43.555296 254.698402 
L 456.192 254.698402 
" clip-path="url(#p79e14357ff)" style="fill: none; stroke: #e5e5e5; stroke-width: 0.8"/>
     </g>
     <g id="line2d_11">
      <path d="M 43.555296 254.698402 
" style="fill: none; stroke: #000000; stroke-width: 1.5"/>
      <defs>
       <path id="mf9a6cdac94" d="M 0 0 
L -2.75 0 
" style="stroke: #333333"/>
      </defs>
      <g>
       <use xlink:href="#mf9a6cdac94" x="43.555296" y="254.698402" style="stroke: #333333"/>
      </g>
     </g>
     <g id="text_4">
      <!-- $\mathdefault{0}$ -->
      <g style="fill: #4d4d4d" transform="translate(34.147698 256.890188) scale(0.088 -0.088)">
       <use xlink:href="#CMR17-30" transform="scale(0.996264)"/>
      </g>
     </g>
    </g>
    <g id="ytick_2">
     <g id="line2d_12">
      <path d="M 43.555296 211.447908 
L 456.192 211.447908 
" clip-path="url(#p79e14357ff)" style="fill: none; stroke: #e5e5e5; stroke-width: 0.8"/>
     </g>
     <g id="line2d_13">
      <path d="M 43.555296 211.447908 
" style="fill: none; stroke: #000000; stroke-width: 1.5"/>
      <g>
       <use xlink:href="#mf9a6cdac94" x="43.555296" y="211.447908" style="stroke: #333333"/>
      </g>
     </g>
     <g id="text_5">
      <!-- $\mathdefault{250}$ -->
      <g style="fill: #4d4d4d" transform="translate(24.832502 213.639693) scale(0.088 -0.088)">
       <defs>
        <path id="CMR17-32" d="M 2669 989 
L 2554 989 
C 2490 536 2438 459 2413 420 
C 2381 369 1920 369 1830 369 
L 602 369 
C 832 619 1280 1072 1824 1597 
C 2214 1967 2669 2402 2669 3035 
C 2669 3790 2067 4224 1395 4224 
C 691 4224 262 3604 262 3030 
C 262 2780 448 2748 525 2748 
C 589 2748 781 2787 781 3010 
C 781 3207 614 3264 525 3264 
C 486 3264 448 3258 422 3245 
C 544 3790 915 4058 1306 4058 
C 1862 4058 2227 3617 2227 3035 
C 2227 2479 1901 2000 1536 1584 
L 262 146 
L 262 0 
L 2515 0 
L 2669 989 
z
" transform="scale(0.015625)"/>
       </defs>
       <use xlink:href="#CMR17-32" transform="scale(0.996264)"/>
       <use xlink:href="#CMR17-35" transform="translate(45.690477 0) scale(0.996264)"/>
       <use xlink:href="#CMR17-30" transform="translate(91.380954 0) scale(0.996264)"/>
      </g>
     </g>
    </g>
    <g id="ytick_3">
     <g id="line2d_14">
      <path d="M 43.555296 168.197413 
L 456.192 168.197413 
" clip-path="url(#p79e14357ff)" style="fill: none; stroke: #e5e5e5; stroke-width: 0.8"/>
     </g>
     <g id="line2d_15">
      <path d="M 43.555296 168.197413 
" style="fill: none; stroke: #000000; stroke-width: 1.5"/>
      <g>
       <use xlink:href="#mf9a6cdac94" x="43.555296" y="168.197413" style="stroke: #333333"/>
      </g>
     </g>
     <g id="text_6">
      <!-- $\mathdefault{500}$ -->
      <g style="fill: #4d4d4d" transform="translate(24.832502 170.389198) scale(0.088 -0.088)">
       <use xlink:href="#CMR17-35" transform="scale(0.996264)"/>
       <use xlink:href="#CMR17-30" transform="translate(45.690477 0) scale(0.996264)"/>
       <use xlink:href="#CMR17-30" transform="translate(91.380954 0) scale(0.996264)"/>
      </g>
     </g>
    </g>
    <g id="ytick_4">
     <g id="line2d_16">
      <path d="M 43.555296 124.946918 
L 456.192 124.946918 
" clip-path="url(#p79e14357ff)" style="fill: none; stroke: #e5e5e5; stroke-width: 0.8"/>
     </g>
     <g id="line2d_17">
      <path d="M 43.555296 124.946918 
" style="fill: none; stroke: #000000; stroke-width: 1.5"/>
      <g>
       <use xlink:href="#mf9a6cdac94" x="43.555296" y="124.946918" style="stroke: #333333"/>
      </g>
     </g>
     <g id="text_7">
      <!-- $\mathdefault{750}$ -->
      <g style="fill: #4d4d4d" transform="translate(24.832502 127.138703) scale(0.088 -0.088)">
       <defs>
        <path id="CMR17-37" d="M 2886 3941 
L 2886 4081 
L 1382 4081 
C 634 4081 621 4165 595 4288 
L 480 4288 
L 294 3094 
L 410 3094 
C 429 3215 474 3540 550 3661 
C 589 3712 1062 3712 1171 3712 
L 2579 3712 
L 1869 2661 
C 1395 1954 1069 999 1069 165 
C 1069 89 1069 -128 1299 -128 
C 1530 -128 1530 89 1530 171 
L 1530 465 
C 1530 1508 1709 2196 2003 2636 
L 2886 3941 
z
" transform="scale(0.015625)"/>
       </defs>
       <use xlink:href="#CMR17-37" transform="scale(0.996264)"/>
       <use xlink:href="#CMR17-35" transform="translate(45.690477 0) scale(0.996264)"/>
       <use xlink:href="#CMR17-30" transform="translate(91.380954 0) scale(0.996264)"/>
      </g>
     </g>
    </g>
    <g id="ytick_5">
     <g id="line2d_18">
      <path d="M 43.555296 81.696423 
L 456.192 81.696423 
" clip-path="url(#p79e14357ff)" style="fill: none; stroke: #e5e5e5; stroke-width: 0.8"/>
     </g>
     <g id="line2d_19">
      <path d="M 43.555296 81.696423 
" style="fill: none; stroke: #000000; stroke-width: 1.5"/>
      <g>
       <use xlink:href="#mf9a6cdac94" x="43.555296" y="81.696423" style="stroke: #333333"/>
      </g>
     </g>
     <g id="text_8">
      <!-- $\mathdefault{1000}$ -->
      <g style="fill: #4d4d4d" transform="translate(20.174904 83.888208) scale(0.088 -0.088)">
       <use xlink:href="#CMR17-31" transform="scale(0.996264)"/>
       <use xlink:href="#CMR17-30" transform="translate(45.690477 0) scale(0.996264)"/>
       <use xlink:href="#CMR17-30" transform="translate(91.380954 0) scale(0.996264)"/>
       <use xlink:href="#CMR17-30" transform="translate(137.071431 0) scale(0.996264)"/>
      </g>
     </g>
    </g>
    <g id="ytick_6">
     <g id="line2d_20">
      <path d="M 43.555296 38.445928 
L 456.192 38.445928 
" clip-path="url(#p79e14357ff)" style="fill: none; stroke: #e5e5e5; stroke-width: 0.8"/>
     </g>
     <g id="line2d_21">
      <path d="M 43.555296 38.445928 
" style="fill: none; stroke: #000000; stroke-width: 1.5"/>
      <g>
       <use xlink:href="#mf9a6cdac94" x="43.555296" y="38.445928" style="stroke: #333333"/>
      </g>
     </g>
     <g id="text_9">
      <!-- $\mathdefault{1250}$ -->
      <g style="fill: #4d4d4d" transform="translate(20.174904 40.637713) scale(0.088 -0.088)">
       <use xlink:href="#CMR17-31" transform="scale(0.996264)"/>
       <use xlink:href="#CMR17-32" transform="translate(45.690477 0) scale(0.996264)"/>
       <use xlink:href="#CMR17-35" transform="translate(91.380954 0) scale(0.996264)"/>
       <use xlink:href="#CMR17-30" transform="translate(137.071431 0) scale(0.996264)"/>
      </g>
     </g>
    </g>
    <g id="ytick_7">
     <g id="line2d_22">
      <path d="M 43.555296 233.073155 
L 456.192 233.073155 
" clip-path="url(#p79e14357ff)" style="fill: none; stroke: #fafafa"/>
     </g>
    </g>
    <g id="ytick_8">
     <g id="line2d_23">
      <path d="M 43.555296 189.82266 
L 456.192 189.82266 
" clip-path="url(#p79e14357ff)" style="fill: none; stroke: #fafafa"/>
     </g>
    </g>
    <g id="ytick_9">
     <g id="line2d_24">
      <path d="M 43.555296 146.572165 
L 456.192 146.572165 
" clip-path="url(#p79e14357ff)" style="fill: none; stroke: #fafafa"/>
     </g>
    </g>
    <g id="ytick_10">
     <g id="line2d_25">
      <path d="M 43.555296 103.32167 
L 456.192 103.32167 
" clip-path="url(#p79e14357ff)" style="fill: none; stroke: #fafafa"/>
     </g>
    </g>
    <g id="ytick_11">
     <g id="line2d_26">
      <path d="M 43.555296 60.071175 
L 456.192 60.071175 
" clip-path="url(#p79e14357ff)" style="fill: none; stroke: #fafafa"/>
     </g>
    </g>
   </g>
   <g id="PathCollection_1">
    <path d="M 64.990969 255.804611 
C 65.284757 255.804611 65.566551 255.687888 65.774291 255.480149 
C 65.98203 255.27241 66.098753 254.990615 66.098753 254.696828 
C 66.098753 254.40304 65.98203 254.121246 65.774291 253.913506 
C 65.566551 253.705767 65.284757 253.589044 64.990969 253.589044 
C 64.697182 253.589044 64.415387 253.705767 64.207648 253.913506 
C 63.999909 254.121246 63.883186 254.40304 63.883186 254.696828 
C 63.883186 254.990615 63.999909 255.27241 64.207648 255.480149 
C 64.415387 255.687888 64.697182 255.804611 64.990969 255.804611 
z
" clip-path="url(#p79e14357ff)" style="fill: #1f77b4; stroke: #1f77b4; stroke-width: 0.886227"/>
    <path d="M 67.670429 255.804601 
C 67.964216 255.804601 68.246011 255.687878 68.45375 255.480139 
C 68.661489 255.2724 68.778212 254.990605 68.778212 254.696818 
C 68.778212 254.40303 68.661489 254.121235 68.45375 253.913496 
C 68.246011 253.705757 67.964216 253.589034 67.670429 253.589034 
C 67.376641 253.589034 67.094846 253.705757 66.887107 253.913496 
C 66.679368 254.121235 66.562645 254.40303 66.562645 254.696818 
C 66.562645 254.990605 66.679368 255.2724 66.887107 255.480139 
C 67.094846 255.687878 67.376641 255.804601 67.670429 255.804601 
z
" clip-path="url(#p79e14357ff)" style="fill: #1f77b4; stroke: #1f77b4; stroke-width: 0.886227"/>
    <path d="M 70.349888 255.804448 
C 70.643675 255.804448 70.92547 255.687725 71.133209 255.479986 
C 71.340948 255.272247 71.457671 254.990452 71.457671 254.696665 
C 71.457671 254.402877 71.340948 254.121083 71.133209 253.913343 
C 70.92547 253.705604 70.643675 253.588881 70.349888 253.588881 
C 70.0561 253.588881 69.774306 253.705604 69.566566 253.913343 
C 69.358827 254.121083 69.242104 254.402877 69.242104 254.696665 
C 69.242104 254.990452 69.358827 255.272247 69.566566 255.479986 
C 69.774306 255.687725 70.0561 255.804448 70.349888 255.804448 
z
" clip-path="url(#p79e14357ff)" style="fill: #1f77b4; stroke: #1f77b4; stroke-width: 0.886227"/>
    <path d="M 73.029347 255.804411 
C 73.323134 255.804411 73.604929 255.687687 73.812668 255.479948 
C 74.020407 255.272209 74.13713 254.990415 74.13713 254.696627 
C 74.13713 254.402839 74.020407 254.121045 73.812668 253.913306 
C 73.604929 253.705566 73.323134 253.588843 73.029347 253.588843 
C 72.735559 253.588843 72.453765 253.705566 72.246025 253.913306 
C 72.038286 254.121045 71.921563 254.402839 71.921563 254.696627 
C 71.921563 254.990415 72.038286 255.272209 72.246025 255.479948 
C 72.453765 255.687687 72.735559 255.804411 73.029347 255.804411 
z
" clip-path="url(#p79e14357ff)" style="fill: #1f77b4; stroke: #1f77b4; stroke-width: 0.886227"/>
    <path d="M 75.708806 255.804383 
C 76.002594 255.804383 76.284388 255.68766 76.492127 255.479921 
C 76.699866 255.272181 76.81659 254.990387 76.81659 254.696599 
C 76.81659 254.402812 76.699866 254.121017 76.492127 253.913278 
C 76.284388 253.705539 76.002594 253.588816 75.708806 253.588816 
C 75.415018 253.588816 75.133224 253.705539 74.925485 253.913278 
C 74.717745 254.121017 74.601022 254.402812 74.601022 254.696599 
C 74.601022 254.990387 74.717745 255.272181 74.925485 255.479921 
C 75.133224 255.68766 75.415018 255.804383 75.708806 255.804383 
z
" clip-path="url(#p79e14357ff)" style="fill: #1f77b4; stroke: #1f77b4; stroke-width: 0.886227"/>
    <path d="M 78.388265 255.804347 
C 78.682053 255.804347 78.963847 255.687624 79.171586 255.479885 
C 79.379326 255.272146 79.496049 254.990351 79.496049 254.696564 
C 79.496049 254.402776 79.379326 254.120982 79.171586 253.913242 
C 78.963847 253.705503 78.682053 253.58878 78.388265 253.58878 
C 78.094477 253.58878 77.812683 253.705503 77.604944 253.913242 
C 77.397204 254.120982 77.280481 254.402776 77.280481 254.696564 
C 77.280481 254.990351 77.397204 255.272146 77.604944 255.479885 
C 77.812683 255.687624 78.094477 255.804347 78.388265 255.804347 
z
" clip-path="url(#p79e14357ff)" style="fill: #1f77b4; stroke: #1f77b4; stroke-width: 0.886227"/>
    <path d="M 81.067724 255.80433 
C 81.361512 255.80433 81.643306 255.687607 81.851045 255.479867 
C 82.058785 255.272128 82.175508 254.990334 82.175508 254.696546 
C 82.175508 254.402758 82.058785 254.120964 81.851045 253.913225 
C 81.643306 253.705485 81.361512 253.588762 81.067724 253.588762 
C 80.773936 253.588762 80.492142 253.705485 80.284403 253.913225 
C 80.076663 254.120964 79.95994 254.402758 79.95994 254.696546 
C 79.95994 254.990334 80.076663 255.272128 80.284403 255.479867 
C 80.492142 255.687607 80.773936 255.80433 81.067724 255.80433 
z
" clip-path="url(#p79e14357ff)" style="fill: #1f77b4; stroke: #1f77b4; stroke-width: 0.886227"/>
    <path d="M 83.747183 255.80432 
C 84.040971 255.80432 84.322765 255.687597 84.530505 255.479858 
C 84.738244 255.272119 84.854967 254.990324 84.854967 254.696537 
C 84.854967 254.402749 84.738244 254.120955 84.530505 253.913215 
C 84.322765 253.705476 84.040971 253.588753 83.747183 253.588753 
C 83.453396 253.588753 83.171601 253.705476 82.963862 253.913215 
C 82.756123 254.120955 82.6394 254.402749 82.6394 254.696537 
C 82.6394 254.990324 82.756123 255.272119 82.963862 255.479858 
C 83.171601 255.687597 83.453396 255.80432 83.747183 255.80432 
z
" clip-path="url(#p79e14357ff)" style="fill: #1f77b4; stroke: #1f77b4; stroke-width: 0.886227"/>
    <path d="M 86.426642 255.804311 
C 86.72043 255.804311 87.002224 255.687587 87.209964 255.479848 
C 87.417703 255.272109 87.534426 254.990315 87.534426 254.696527 
C 87.534426 254.402739 87.417703 254.120945 87.209964 253.913206 
C 87.002224 253.705466 86.72043 253.588743 86.426642 253.588743 
C 86.132855 253.588743 85.85106 253.705466 85.643321 253.913206 
C 85.435582 254.120945 85.318859 254.402739 85.318859 254.696527 
C 85.318859 254.990315 85.435582 255.272109 85.643321 255.479848 
C 85.85106 255.687587 86.132855 255.804311 86.426642 255.804311 
z
" clip-path="url(#p79e14357ff)" style="fill: #1f77b4; stroke: #1f77b4; stroke-width: 0.886227"/>
    <path d="M 89.106101 255.804276 
C 89.399889 255.804276 89.681684 255.687553 89.889423 255.479814 
C 90.097162 255.272075 90.213885 254.99028 90.213885 254.696493 
C 90.213885 254.402705 90.097162 254.120911 89.889423 253.913171 
C 89.681684 253.705432 89.399889 253.588709 89.106101 253.588709 
C 88.812314 253.588709 88.530519 253.705432 88.32278 253.913171 
C 88.115041 254.120911 87.998318 254.402705 87.998318 254.696493 
C 87.998318 254.99028 88.115041 255.272075 88.32278 255.479814 
C 88.530519 255.687553 88.812314 255.804276 89.106101 255.804276 
z
" clip-path="url(#p79e14357ff)" style="fill: #1f77b4; stroke: #1f77b4; stroke-width: 0.886227"/>
    <path d="M 91.785561 255.804216 
C 92.079348 255.804216 92.361143 255.687492 92.568882 255.479753 
C 92.776621 255.272014 92.893344 254.99022 92.893344 254.696432 
C 92.893344 254.402644 92.776621 254.12085 92.568882 253.913111 
C 92.361143 253.705371 92.079348 253.588648 91.785561 253.588648 
C 91.491773 253.588648 91.209978 253.705371 91.002239 253.913111 
C 90.7945 254.12085 90.677777 254.402644 90.677777 254.696432 
C 90.677777 254.99022 90.7945 255.272014 91.002239 255.479753 
C 91.209978 255.687492 91.491773 255.804216 91.785561 255.804216 
z
" clip-path="url(#p79e14357ff)" style="fill: #1f77b4; stroke: #1f77b4; stroke-width: 0.886227"/>
    <path d="M 94.46502 255.804171 
C 94.758807 255.804171 95.040602 255.687448 95.248341 255.479709 
C 95.45608 255.271969 95.572803 254.990175 95.572803 254.696387 
C 95.572803 254.4026 95.45608 254.120805 95.248341 253.913066 
C 95.040602 253.705327 94.758807 253.588604 94.46502 253.588604 
C 94.171232 253.588604 93.889438 253.705327 93.681698 253.913066 
C 93.473959 254.120805 93.357236 254.4026 93.357236 254.696387 
C 93.357236 254.990175 93.473959 255.271969 93.681698 255.479709 
C 93.889438 255.687448 94.171232 255.804171 94.46502 255.804171 
z
" clip-path="url(#p79e14357ff)" style="fill: #1f77b4; stroke: #1f77b4; stroke-width: 0.886227"/>
    <path d="M 97.144479 255.804122 
C 97.438266 255.804122 97.720061 255.687399 97.9278 255.47966 
C 98.135539 255.271921 98.252262 254.990127 98.252262 254.696339 
C 98.252262 254.402551 98.135539 254.120757 97.9278 253.913018 
C 97.720061 253.705278 97.438266 253.588555 97.144479 253.588555 
C 96.850691 253.588555 96.568897 253.705278 96.361157 253.913018 
C 96.153418 254.120757 96.036695 254.402551 96.036695 254.696339 
C 96.036695 254.990127 96.153418 255.271921 96.361157 255.47966 
C 96.568897 255.687399 96.850691 255.804122 97.144479 255.804122 
z
" clip-path="url(#p79e14357ff)" style="fill: #1f77b4; stroke: #1f77b4; stroke-width: 0.886227"/>
    <path d="M 99.823938 255.804073 
C 100.117726 255.804073 100.39952 255.68735 100.607259 255.479611 
C 100.814998 255.271872 100.931722 254.990077 100.931722 254.69629 
C 100.931722 254.402502 100.814998 254.120707 100.607259 253.912968 
C 100.39952 253.705229 100.117726 253.588506 99.823938 253.588506 
C 99.53015 253.588506 99.248356 253.705229 99.040617 253.912968 
C 98.832877 254.120707 98.716154 254.402502 98.716154 254.69629 
C 98.716154 254.990077 98.832877 255.271872 99.040617 255.479611 
C 99.248356 255.68735 99.53015 255.804073 99.823938 255.804073 
z
" clip-path="url(#p79e14357ff)" style="fill: #1f77b4; stroke: #1f77b4; stroke-width: 0.886227"/>
    <path d="M 102.503397 255.804026 
C 102.797185 255.804026 103.078979 255.687303 103.286718 255.479564 
C 103.494458 255.271825 103.611181 254.99003 103.611181 254.696242 
C 103.611181 254.402455 103.494458 254.12066 103.286718 253.912921 
C 103.078979 253.705182 102.797185 253.588459 102.503397 253.588459 
C 102.209609 253.588459 101.927815 253.705182 101.720076 253.912921 
C 101.512336 254.12066 101.395613 254.402455 101.395613 254.696242 
C 101.395613 254.99003 101.512336 255.271825 101.720076 255.479564 
C 101.927815 255.687303 102.209609 255.804026 102.503397 255.804026 
z
" clip-path="url(#p79e14357ff)" style="fill: #1f77b4; stroke: #1f77b4; stroke-width: 0.886227"/>
    <path d="M 105.182856 255.804014 
C 105.476644 255.804014 105.758438 255.687291 105.966177 255.479551 
C 106.173917 255.271812 106.29064 254.990018 106.29064 254.69623 
C 106.29064 254.402442 106.173917 254.120648 105.966177 253.912909 
C 105.758438 253.705169 105.476644 253.588446 105.182856 253.588446 
C 104.889068 253.588446 104.607274 253.705169 104.399535 253.912909 
C 104.191796 254.120648 104.075072 254.402442 104.075072 254.69623 
C 104.075072 254.990018 104.191796 255.271812 104.399535 255.479551 
C 104.607274 255.687291 104.889068 255.804014 105.182856 255.804014 
z
" clip-path="url(#p79e14357ff)" style="fill: #1f77b4; stroke: #1f77b4; stroke-width: 0.886227"/>
    <path d="M 107.862315 255.804002 
C 108.156103 255.804002 108.437897 255.687279 108.645637 255.47954 
C 108.853376 255.2718 108.970099 254.990006 108.970099 254.696218 
C 108.970099 254.402431 108.853376 254.120636 108.645637 253.912897 
C 108.437897 253.705158 108.156103 253.588435 107.862315 253.588435 
C 107.568528 253.588435 107.286733 253.705158 107.078994 253.912897 
C 106.871255 254.120636 106.754532 254.402431 106.754532 254.696218 
C 106.754532 254.990006 106.871255 255.2718 107.078994 255.47954 
C 107.286733 255.687279 107.568528 255.804002 107.862315 255.804002 
z
" clip-path="url(#p79e14357ff)" style="fill: #1f77b4; stroke: #1f77b4; stroke-width: 0.886227"/>
    <path d="M 110.541774 255.803637 
C 110.835562 255.803637 111.117356 255.686914 111.325096 255.479175 
C 111.532835 255.271436 111.649558 254.989641 111.649558 254.695853 
C 111.649558 254.402066 111.532835 254.120271 111.325096 253.912532 
C 111.117356 253.704793 110.835562 253.58807 110.541774 253.58807 
C 110.247987 253.58807 109.966192 253.704793 109.758453 253.912532 
C 109.550714 254.120271 109.433991 254.402066 109.433991 254.695853 
C 109.433991 254.989641 109.550714 255.271436 109.758453 255.479175 
C 109.966192 255.686914 110.247987 255.803637 110.541774 255.803637 
z
" clip-path="url(#p79e14357ff)" style="fill: #1f77b4; stroke: #1f77b4; stroke-width: 0.886227"/>
    <path d="M 113.221233 255.8036 
C 113.515021 255.8036 113.796816 255.686876 114.004555 255.479137 
C 114.212294 255.271398 114.329017 254.989604 114.329017 254.695816 
C 114.329017 254.402028 114.212294 254.120234 114.004555 253.912495 
C 113.796816 253.704755 113.515021 253.588032 113.221233 253.588032 
C 112.927446 253.588032 112.645651 253.704755 112.437912 253.912495 
C 112.230173 254.120234 112.11345 254.402028 112.11345 254.695816 
C 112.11345 254.989604 112.230173 255.271398 112.437912 255.479137 
C 112.645651 255.686876 112.927446 255.8036 113.221233 255.8036 
z
" clip-path="url(#p79e14357ff)" style="fill: #1f77b4; stroke: #1f77b4; stroke-width: 0.886227"/>
    <path d="M 115.900693 255.80348 
C 116.19448 255.80348 116.476275 255.686757 116.684014 255.479018 
C 116.891753 255.271279 117.008476 254.989484 117.008476 254.695697 
C 117.008476 254.401909 116.891753 254.120115 116.684014 253.912375 
C 116.476275 253.704636 116.19448 253.587913 115.900693 253.587913 
C 115.606905 253.587913 115.32511 253.704636 115.117371 253.912375 
C 114.909632 254.120115 114.792909 254.401909 114.792909 254.695697 
C 114.792909 254.989484 114.909632 255.271279 115.117371 255.479018 
C 115.32511 255.686757 115.606905 255.80348 115.900693 255.80348 
z
" clip-path="url(#p79e14357ff)" style="fill: #1f77b4; stroke: #1f77b4; stroke-width: 0.886227"/>
    <path d="M 118.580152 255.803231 
C 118.873939 255.803231 119.155734 255.686508 119.363473 255.478768 
C 119.571212 255.271029 119.687935 254.989235 119.687935 254.695447 
C 119.687935 254.401659 119.571212 254.119865 119.363473 253.912126 
C 119.155734 253.704386 118.873939 253.587663 118.580152 253.587663 
C 118.286364 253.587663 118.00457 253.704386 117.79683 253.912126 
C 117.589091 254.119865 117.472368 254.401659 117.472368 254.695447 
C 117.472368 254.989235 117.589091 255.271029 117.79683 255.478768 
C 118.00457 255.686508 118.286364 255.803231 118.580152 255.803231 
z
" clip-path="url(#p79e14357ff)" style="fill: #1f77b4; stroke: #1f77b4; stroke-width: 0.886227"/>
    <path d="M 121.259611 255.803211 
C 121.553398 255.803211 121.835193 255.686488 122.042932 255.478749 
C 122.250671 255.27101 122.367394 254.989215 122.367394 254.695428 
C 122.367394 254.40164 122.250671 254.119846 122.042932 253.912106 
C 121.835193 253.704367 121.553398 253.587644 121.259611 253.587644 
C 120.965823 253.587644 120.684029 253.704367 120.476289 253.912106 
C 120.26855 254.119846 120.151827 254.40164 120.151827 254.695428 
C 120.151827 254.989215 120.26855 255.27101 120.476289 255.478749 
C 120.684029 255.686488 120.965823 255.803211 121.259611 255.803211 
z
" clip-path="url(#p79e14357ff)" style="fill: #1f77b4; stroke: #1f77b4; stroke-width: 0.886227"/>
    <path d="M 123.93907 255.803036 
C 124.232858 255.803036 124.514652 255.686313 124.722391 255.478574 
C 124.93013 255.270834 125.046854 254.98904 125.046854 254.695252 
C 125.046854 254.401465 124.93013 254.11967 124.722391 253.911931 
C 124.514652 253.704192 124.232858 253.587469 123.93907 253.587469 
C 123.645282 253.587469 123.363488 253.704192 123.155749 253.911931 
C 122.948009 254.11967 122.831286 254.401465 122.831286 254.695252 
C 122.831286 254.98904 122.948009 255.270834 123.155749 255.478574 
C 123.363488 255.686313 123.645282 255.803036 123.93907 255.803036 
z
" clip-path="url(#p79e14357ff)" style="fill: #1f77b4; stroke: #1f77b4; stroke-width: 0.886227"/>
    <path d="M 126.618529 255.802777 
C 126.912317 255.802777 127.194111 255.686054 127.40185 255.478315 
C 127.60959 255.270576 127.726313 254.988781 127.726313 254.694993 
C 127.726313 254.401206 127.60959 254.119411 127.40185 253.911672 
C 127.194111 253.703933 126.912317 253.58721 126.618529 253.58721 
C 126.324741 253.58721 126.042947 253.703933 125.835208 253.911672 
C 125.627468 254.119411 125.510745 254.401206 125.510745 254.694993 
C 125.510745 254.988781 125.627468 255.270576 125.835208 255.478315 
C 126.042947 255.686054 126.324741 255.802777 126.618529 255.802777 
z
" clip-path="url(#p79e14357ff)" style="fill: #1f77b4; stroke: #1f77b4; stroke-width: 0.886227"/>
    <path d="M 129.297988 255.800468 
C 129.591776 255.800468 129.87357 255.683745 130.081309 255.476005 
C 130.289049 255.268266 130.405772 254.986472 130.405772 254.692684 
C 130.405772 254.398896 130.289049 254.117102 130.081309 253.909363 
C 129.87357 253.701623 129.591776 253.5849 129.297988 253.5849 
C 129.0042 253.5849 128.722406 253.701623 128.514667 253.909363 
C 128.306928 254.117102 128.190204 254.398896 128.190204 254.692684 
C 128.190204 254.986472 128.306928 255.268266 128.514667 255.476005 
C 128.722406 255.683745 129.0042 255.800468 129.297988 255.800468 
z
" clip-path="url(#p79e14357ff)" style="fill: #1f77b4; stroke: #1f77b4; stroke-width: 0.886227"/>
    <path d="M 131.977447 255.798121 
C 132.271235 255.798121 132.553029 255.681397 132.760769 255.473658 
C 132.968508 255.265919 133.085231 254.984125 133.085231 254.690337 
C 133.085231 254.396549 132.968508 254.114755 132.760769 253.907016 
C 132.553029 253.699276 132.271235 253.582553 131.977447 253.582553 
C 131.68366 253.582553 131.401865 253.699276 131.194126 253.907016 
C 130.986387 254.114755 130.869664 254.396549 130.869664 254.690337 
C 130.869664 254.984125 130.986387 255.265919 131.194126 255.473658 
C 131.401865 255.681397 131.68366 255.798121 131.977447 255.798121 
z
" clip-path="url(#p79e14357ff)" style="fill: #1f77b4; stroke: #1f77b4; stroke-width: 0.886227"/>
    <path d="M 134.656906 255.79561 
C 134.950694 255.79561 135.232488 255.678887 135.440228 255.471148 
C 135.647967 255.263408 135.76469 254.981614 135.76469 254.687826 
C 135.76469 254.394039 135.647967 254.112244 135.440228 253.904505 
C 135.232488 253.696766 134.950694 253.580043 134.656906 253.580043 
C 134.363119 253.580043 134.081324 253.696766 133.873585 253.904505 
C 133.665846 254.112244 133.549123 254.394039 133.549123 254.687826 
C 133.549123 254.981614 133.665846 255.263408 133.873585 255.471148 
C 134.081324 255.678887 134.363119 255.79561 134.656906 255.79561 
z
" clip-path="url(#p79e14357ff)" style="fill: #1f77b4; stroke: #1f77b4; stroke-width: 0.886227"/>
    <path d="M 137.336365 255.762477 
C 137.630153 255.762477 137.911948 255.645754 138.119687 255.438015 
C 138.327426 255.230276 138.444149 254.948481 138.444149 254.654693 
C 138.444149 254.360906 138.327426 254.079111 138.119687 253.871372 
C 137.911948 253.663633 137.630153 253.54691 137.336365 253.54691 
C 137.042578 253.54691 136.760783 253.663633 136.553044 253.871372 
C 136.345305 254.079111 136.228582 254.360906 136.228582 254.654693 
C 136.228582 254.948481 136.345305 255.230276 136.553044 255.438015 
C 136.760783 255.645754 137.042578 255.762477 137.336365 255.762477 
z
" clip-path="url(#p79e14357ff)" style="fill: #1f77b4; stroke: #1f77b4; stroke-width: 0.886227"/>
    <path d="M 140.015825 255.757836 
C 140.309612 255.757836 140.591407 255.641113 140.799146 255.433374 
C 141.006885 255.225634 141.123608 254.94384 141.123608 254.650052 
C 141.123608 254.356265 141.006885 254.07447 140.799146 253.866731 
C 140.591407 253.658992 140.309612 253.542269 140.015825 253.542269 
C 139.722037 253.542269 139.440242 253.658992 139.232503 253.866731 
C 139.024764 254.07447 138.908041 254.356265 138.908041 254.650052 
C 138.908041 254.94384 139.024764 255.225634 139.232503 255.433374 
C 139.440242 255.641113 139.722037 255.757836 140.015825 255.757836 
z
" clip-path="url(#p79e14357ff)" style="fill: #1f77b4; stroke: #1f77b4; stroke-width: 0.886227"/>
    <path d="M 142.695284 255.740435 
C 142.989071 255.740435 143.270866 255.623712 143.478605 255.415972 
C 143.686344 255.208233 143.803067 254.926439 143.803067 254.632651 
C 143.803067 254.338863 143.686344 254.057069 143.478605 253.84933 
C 143.270866 253.64159 142.989071 253.524867 142.695284 253.524867 
C 142.401496 253.524867 142.119702 253.64159 141.911962 253.84933 
C 141.704223 254.057069 141.5875 254.338863 141.5875 254.632651 
C 141.5875 254.926439 141.704223 255.208233 141.911962 255.415972 
C 142.119702 255.623712 142.401496 255.740435 142.695284 255.740435 
z
" clip-path="url(#p79e14357ff)" style="fill: #1f77b4; stroke: #1f77b4; stroke-width: 0.886227"/>
    <path d="M 145.374743 255.710843 
C 145.66853 255.710843 145.950325 255.59412 146.158064 255.38638 
C 146.365803 255.178641 146.482526 254.896847 146.482526 254.603059 
C 146.482526 254.309271 146.365803 254.027477 146.158064 253.819738 
C 145.950325 253.611998 145.66853 253.495275 145.374743 253.495275 
C 145.080955 253.495275 144.799161 253.611998 144.591421 253.819738 
C 144.383682 254.027477 144.266959 254.309271 144.266959 254.603059 
C 144.266959 254.896847 144.383682 255.178641 144.591421 255.38638 
C 144.799161 255.59412 145.080955 255.710843 145.374743 255.710843 
z
" clip-path="url(#p79e14357ff)" style="fill: #1f77b4; stroke: #1f77b4; stroke-width: 0.886227"/>
    <path d="M 148.054202 255.66987 
C 148.34799 255.66987 148.629784 255.553147 148.837523 255.345408 
C 149.045263 255.137669 149.161986 254.855874 149.161986 254.562086 
C 149.161986 254.268299 149.045263 253.986504 148.837523 253.778765 
C 148.629784 253.571026 148.34799 253.454303 148.054202 253.454303 
C 147.760414 253.454303 147.47862 253.571026 147.270881 253.778765 
C 147.063141 253.986504 146.946418 254.268299 146.946418 254.562086 
C 146.946418 254.855874 147.063141 255.137669 147.270881 255.345408 
C 147.47862 255.553147 147.760414 255.66987 148.054202 255.66987 
z
" clip-path="url(#p79e14357ff)" style="fill: #1f77b4; stroke: #1f77b4; stroke-width: 0.886227"/>
    <path d="M 150.733661 255.598938 
C 151.027449 255.598938 151.309243 255.482215 151.516982 255.274475 
C 151.724722 255.066736 151.841445 254.784942 151.841445 254.491154 
C 151.841445 254.197366 151.724722 253.915572 151.516982 253.707833 
C 151.309243 253.500093 151.027449 253.38337 150.733661 253.38337 
C 150.439873 253.38337 150.158079 253.500093 149.95034 253.707833 
C 149.7426 253.915572 149.625877 254.197366 149.625877 254.491154 
C 149.625877 254.784942 149.7426 255.066736 149.95034 255.274475 
C 150.158079 255.482215 150.439873 255.598938 150.733661 255.598938 
z
" clip-path="url(#p79e14357ff)" style="fill: #1f77b4; stroke: #1f77b4; stroke-width: 0.886227"/>
    <path d="M 153.41312 255.440257 
C 153.706908 255.440257 153.988702 255.323534 154.196441 255.115795 
C 154.404181 254.908055 154.520904 254.626261 154.520904 254.332473 
C 154.520904 254.038686 154.404181 253.756891 154.196441 253.549152 
C 153.988702 253.341413 153.706908 253.22469 153.41312 253.22469 
C 153.119332 253.22469 152.837538 253.341413 152.629799 253.549152 
C 152.42206 253.756891 152.305336 254.038686 152.305336 254.332473 
C 152.305336 254.626261 152.42206 254.908055 152.629799 255.115795 
C 152.837538 255.323534 153.119332 255.440257 153.41312 255.440257 
z
" clip-path="url(#p79e14357ff)" style="fill: #1f77b4; stroke: #1f77b4; stroke-width: 0.886227"/>
    <path d="M 156.092579 255.43077 
C 156.386367 255.43077 156.668161 255.314046 156.875901 255.106307 
C 157.08364 254.898568 157.200363 254.616774 157.200363 254.322986 
C 157.200363 254.029198 157.08364 253.747404 156.875901 253.539665 
C 156.668161 253.331925 156.386367 253.215202 156.092579 253.215202 
C 155.798792 253.215202 155.516997 253.331925 155.309258 253.539665 
C 155.101519 253.747404 154.984796 254.029198 154.984796 254.322986 
C 154.984796 254.616774 155.101519 254.898568 155.309258 255.106307 
C 155.516997 255.314046 155.798792 255.43077 156.092579 255.43077 
z
" clip-path="url(#p79e14357ff)" style="fill: #1f77b4; stroke: #1f77b4; stroke-width: 0.886227"/>
    <path d="M 158.772038 255.315423 
C 159.065826 255.315423 159.34762 255.1987 159.55536 254.99096 
C 159.763099 254.783221 159.879822 254.501427 159.879822 254.207639 
C 159.879822 253.913851 159.763099 253.632057 159.55536 253.424318 
C 159.34762 253.216578 159.065826 253.099855 158.772038 253.099855 
C 158.478251 253.099855 158.196456 253.216578 157.988717 253.424318 
C 157.780978 253.632057 157.664255 253.913851 157.664255 254.207639 
C 157.664255 254.501427 157.780978 254.783221 157.988717 254.99096 
C 158.196456 255.1987 158.478251 255.315423 158.772038 255.315423 
z
" clip-path="url(#p79e14357ff)" style="fill: #1f77b4; stroke: #1f77b4; stroke-width: 0.886227"/>
    <path d="M 161.451497 254.998617 
C 161.745285 254.998617 162.02708 254.881894 162.234819 254.674154 
C 162.442558 254.466415 162.559281 254.184621 162.559281 253.890833 
C 162.559281 253.597045 162.442558 253.315251 162.234819 253.107512 
C 162.02708 252.899773 161.745285 252.783049 161.451497 252.783049 
C 161.15771 252.783049 160.875915 252.899773 160.668176 253.107512 
C 160.460437 253.315251 160.343714 253.597045 160.343714 253.890833 
C 160.343714 254.184621 160.460437 254.466415 160.668176 254.674154 
C 160.875915 254.881894 161.15771 254.998617 161.451497 254.998617 
z
" clip-path="url(#p79e14357ff)" style="fill: #1f77b4; stroke: #1f77b4; stroke-width: 0.886227"/>
    <path d="M 164.130957 254.958561 
C 164.424744 254.958561 164.706539 254.841838 164.914278 254.634098 
C 165.122017 254.426359 165.23874 254.144565 165.23874 253.850777 
C 165.23874 253.556989 165.122017 253.275195 164.914278 253.067456 
C 164.706539 252.859717 164.424744 252.742993 164.130957 252.742993 
C 163.837169 252.742993 163.555375 252.859717 163.347635 253.067456 
C 163.139896 253.275195 163.023173 253.556989 163.023173 253.850777 
C 163.023173 254.144565 163.139896 254.426359 163.347635 254.634098 
C 163.555375 254.841838 163.837169 254.958561 164.130957 254.958561 
z
" clip-path="url(#p79e14357ff)" style="fill: #1f77b4; stroke: #1f77b4; stroke-width: 0.886227"/>
    <path d="M 166.810416 254.948326 
C 167.104203 254.948326 167.385998 254.831603 167.593737 254.623864 
C 167.801476 254.416125 167.918199 254.13433 167.918199 253.840543 
C 167.918199 253.546755 167.801476 253.264961 167.593737 253.057221 
C 167.385998 252.849482 167.104203 252.732759 166.810416 252.732759 
C 166.516628 252.732759 166.234834 252.849482 166.027094 253.057221 
C 165.819355 253.264961 165.702632 253.546755 165.702632 253.840543 
C 165.702632 254.13433 165.819355 254.416125 166.027094 254.623864 
C 166.234834 254.831603 166.516628 254.948326 166.810416 254.948326 
z
" clip-path="url(#p79e14357ff)" style="fill: #1f77b4; stroke: #1f77b4; stroke-width: 0.886227"/>
    <path d="M 169.489875 254.553537 
C 169.783662 254.553537 170.065457 254.436814 170.273196 254.229075 
C 170.480935 254.021336 170.597658 253.739541 170.597658 253.445754 
C 170.597658 253.151966 170.480935 252.870171 170.273196 252.662432 
C 170.065457 252.454693 169.783662 252.33797 169.489875 252.33797 
C 169.196087 252.33797 168.914293 252.454693 168.706553 252.662432 
C 168.498814 252.870171 168.382091 253.151966 168.382091 253.445754 
C 168.382091 253.739541 168.498814 254.021336 168.706553 254.229075 
C 168.914293 254.436814 169.196087 254.553537 169.489875 254.553537 
z
" clip-path="url(#p79e14357ff)" style="fill: #1f77b4; stroke: #1f77b4; stroke-width: 0.886227"/>
    <path d="M 172.169334 254.528785 
C 172.463122 254.528785 172.744916 254.412062 172.952655 254.204323 
C 173.160395 253.996584 173.277118 253.714789 173.277118 253.421002 
C 173.277118 253.127214 173.160395 252.84542 172.952655 252.63768 
C 172.744916 252.429941 172.463122 252.313218 172.169334 252.313218 
C 171.875546 252.313218 171.593752 252.429941 171.386013 252.63768 
C 171.178273 252.84542 171.06155 253.127214 171.06155 253.421002 
C 171.06155 253.714789 171.178273 253.996584 171.386013 254.204323 
C 171.593752 254.412062 171.875546 254.528785 172.169334 254.528785 
z
" clip-path="url(#p79e14357ff)" style="fill: #1f77b4; stroke: #1f77b4; stroke-width: 0.886227"/>
    <path d="M 174.848793 254.472034 
C 175.142581 254.472034 175.424375 254.355311 175.632114 254.147572 
C 175.839854 253.939833 175.956577 253.658038 175.956577 253.36425 
C 175.956577 253.070463 175.839854 252.788668 175.632114 252.580929 
C 175.424375 252.37319 175.142581 252.256467 174.848793 252.256467 
C 174.555005 252.256467 174.273211 252.37319 174.065472 252.580929 
C 173.857732 252.788668 173.741009 253.070463 173.741009 253.36425 
C 173.741009 253.658038 173.857732 253.939833 174.065472 254.147572 
C 174.273211 254.355311 174.555005 254.472034 174.848793 254.472034 
z
" clip-path="url(#p79e14357ff)" style="fill: #1f77b4; stroke: #1f77b4; stroke-width: 0.886227"/>
    <path d="M 177.528252 254.089086 
C 177.82204 254.089086 178.103834 253.972363 178.311574 253.764624 
C 178.519313 253.556884 178.636036 253.27509 178.636036 252.981302 
C 178.636036 252.687515 178.519313 252.40572 178.311574 252.197981 
C 178.103834 251.990242 177.82204 251.873519 177.528252 251.873519 
C 177.234465 251.873519 176.95267 251.990242 176.744931 252.197981 
C 176.537192 252.40572 176.420469 252.687515 176.420469 252.981302 
C 176.420469 253.27509 176.537192 253.556884 176.744931 253.764624 
C 176.95267 253.972363 177.234465 254.089086 177.528252 254.089086 
z
" clip-path="url(#p79e14357ff)" style="fill: #1f77b4; stroke: #1f77b4; stroke-width: 0.886227"/>
    <path d="M 180.207711 254.08869 
C 180.501499 254.08869 180.783293 253.971967 180.991033 253.764227 
C 181.198772 253.556488 181.315495 253.274694 181.315495 252.980906 
C 181.315495 252.687118 181.198772 252.405324 180.991033 252.197585 
C 180.783293 251.989845 180.501499 251.873122 180.207711 251.873122 
C 179.913924 251.873122 179.632129 251.989845 179.42439 252.197585 
C 179.216651 252.405324 179.099928 252.687118 179.099928 252.980906 
C 179.099928 253.274694 179.216651 253.556488 179.42439 253.764227 
C 179.632129 253.971967 179.913924 254.08869 180.207711 254.08869 
z
" clip-path="url(#p79e14357ff)" style="fill: #1f77b4; stroke: #1f77b4; stroke-width: 0.886227"/>
    <path d="M 182.88717 253.802461 
C 183.180958 253.802461 183.462752 253.685738 183.670492 253.477999 
C 183.878231 253.270259 183.994954 252.988465 183.994954 252.694677 
C 183.994954 252.40089 183.878231 252.119095 183.670492 251.911356 
C 183.462752 251.703617 183.180958 251.586894 182.88717 251.586894 
C 182.593383 251.586894 182.311588 251.703617 182.103849 251.911356 
C 181.89611 252.119095 181.779387 252.40089 181.779387 252.694677 
C 181.779387 252.988465 181.89611 253.270259 182.103849 253.477999 
C 182.311588 253.685738 182.593383 253.802461 182.88717 253.802461 
z
" clip-path="url(#p79e14357ff)" style="fill: #1f77b4; stroke: #1f77b4; stroke-width: 0.886227"/>
    <path d="M 185.56663 253.584029 
C 185.860417 253.584029 186.142212 253.467306 186.349951 253.259566 
C 186.55769 253.051827 186.674413 252.770033 186.674413 252.476245 
C 186.674413 252.182457 186.55769 251.900663 186.349951 251.692924 
C 186.142212 251.485184 185.860417 251.368461 185.56663 251.368461 
C 185.272842 251.368461 184.991047 251.485184 184.783308 251.692924 
C 184.575569 251.900663 184.458846 252.182457 184.458846 252.476245 
C 184.458846 252.770033 184.575569 253.051827 184.783308 253.259566 
C 184.991047 253.467306 185.272842 253.584029 185.56663 253.584029 
z
" clip-path="url(#p79e14357ff)" style="fill: #1f77b4; stroke: #1f77b4; stroke-width: 0.886227"/>
    <path d="M 188.246089 253.430134 
C 188.539876 253.430134 188.821671 253.313411 189.02941 253.105672 
C 189.237149 252.897933 189.353872 252.616138 189.353872 252.322351 
C 189.353872 252.028563 189.237149 251.746769 189.02941 251.53903 
C 188.821671 251.33129 188.539876 251.214567 188.246089 251.214567 
C 187.952301 251.214567 187.670507 251.33129 187.462767 251.53903 
C 187.255028 251.746769 187.138305 252.028563 187.138305 252.322351 
C 187.138305 252.616138 187.255028 252.897933 187.462767 253.105672 
C 187.670507 253.313411 187.952301 253.430134 188.246089 253.430134 
z
" clip-path="url(#p79e14357ff)" style="fill: #1f77b4; stroke: #1f77b4; stroke-width: 0.886227"/>
    <path d="M 190.925548 252.86501 
C 191.219335 252.86501 191.50113 252.748287 191.708869 252.540548 
C 191.916608 252.332809 192.033331 252.051014 192.033331 251.757227 
C 192.033331 251.463439 191.916608 251.181645 191.708869 250.973905 
C 191.50113 250.766166 191.219335 250.649443 190.925548 250.649443 
C 190.63176 250.649443 190.349966 250.766166 190.142226 250.973905 
C 189.934487 251.181645 189.817764 251.463439 189.817764 251.757227 
C 189.817764 252.051014 189.934487 252.332809 190.142226 252.540548 
C 190.349966 252.748287 190.63176 252.86501 190.925548 252.86501 
z
" clip-path="url(#p79e14357ff)" style="fill: #1f77b4; stroke: #1f77b4; stroke-width: 0.886227"/>
    <path d="M 193.605007 250.745794 
C 193.898795 250.745794 194.180589 250.629071 194.388328 250.421332 
C 194.596067 250.213593 194.712791 249.931798 194.712791 249.638011 
C 194.712791 249.344223 194.596067 249.062429 194.388328 248.854689 
C 194.180589 248.64695 193.898795 248.530227 193.605007 248.530227 
C 193.311219 248.530227 193.029425 248.64695 192.821686 248.854689 
C 192.613946 249.062429 192.497223 249.344223 192.497223 249.638011 
C 192.497223 249.931798 192.613946 250.213593 192.821686 250.421332 
C 193.029425 250.629071 193.311219 250.745794 193.605007 250.745794 
z
" clip-path="url(#p79e14357ff)" style="fill: #1f77b4; stroke: #1f77b4; stroke-width: 0.886227"/>
    <path d="M 196.284466 250.401163 
C 196.578254 250.401163 196.860048 250.28444 197.067787 250.076701 
C 197.275527 249.868962 197.39225 249.587167 197.39225 249.29338 
C 197.39225 248.999592 197.275527 248.717798 197.067787 248.510058 
C 196.860048 248.302319 196.578254 248.185596 196.284466 248.185596 
C 195.990678 248.185596 195.708884 248.302319 195.501145 248.510058 
C 195.293405 248.717798 195.176682 248.999592 195.176682 249.29338 
C 195.176682 249.587167 195.293405 249.868962 195.501145 250.076701 
C 195.708884 250.28444 195.990678 250.401163 196.284466 250.401163 
z
" clip-path="url(#p79e14357ff)" style="fill: #1f77b4; stroke: #1f77b4; stroke-width: 0.886227"/>
    <path d="M 198.963925 250.081849 
C 199.257713 250.081849 199.539507 249.965126 199.747246 249.757387 
C 199.954986 249.549647 200.071709 249.267853 200.071709 248.974065 
C 200.071709 248.680278 199.954986 248.398483 199.747246 248.190744 
C 199.539507 247.983005 199.257713 247.866282 198.963925 247.866282 
C 198.670137 247.866282 198.388343 247.983005 198.180604 248.190744 
C 197.972864 248.398483 197.856141 248.680278 197.856141 248.974065 
C 197.856141 249.267853 197.972864 249.549647 198.180604 249.757387 
C 198.388343 249.965126 198.670137 250.081849 198.963925 250.081849 
z
" clip-path="url(#p79e14357ff)" style="fill: #1f77b4; stroke: #1f77b4; stroke-width: 0.886227"/>
    <path d="M 201.643384 249.875244 
C 201.937172 249.875244 202.218966 249.758521 202.426706 249.550782 
C 202.634445 249.343043 202.751168 249.061248 202.751168 248.767461 
C 202.751168 248.473673 202.634445 248.191879 202.426706 247.984139 
C 202.218966 247.7764 201.937172 247.659677 201.643384 247.659677 
C 201.349597 247.659677 201.067802 247.7764 200.860063 247.984139 
C 200.652324 248.191879 200.535601 248.473673 200.535601 248.767461 
C 200.535601 249.061248 200.652324 249.343043 200.860063 249.550782 
C 201.067802 249.758521 201.349597 249.875244 201.643384 249.875244 
z
" clip-path="url(#p79e14357ff)" style="fill: #1f77b4; stroke: #1f77b4; stroke-width: 0.886227"/>
    <path d="M 204.322843 248.940007 
C 204.616631 248.940007 204.898425 248.823283 205.106165 248.615544 
C 205.313904 248.407805 205.430627 248.126011 205.430627 247.832223 
C 205.430627 247.538435 205.313904 247.256641 205.106165 247.048902 
C 204.898425 246.841162 204.616631 246.724439 204.322843 246.724439 
C 204.029056 246.724439 203.747261 246.841162 203.539522 247.048902 
C 203.331783 247.256641 203.21506 247.538435 203.21506 247.832223 
C 203.21506 248.126011 203.331783 248.407805 203.539522 248.615544 
C 203.747261 248.823283 204.029056 248.940007 204.322843 248.940007 
z
" clip-path="url(#p79e14357ff)" style="fill: #1f77b4; stroke: #1f77b4; stroke-width: 0.886227"/>
    <path d="M 207.002302 244.848025 
C 207.29609 244.848025 207.577885 244.731302 207.785624 244.523562 
C 207.993363 244.315823 208.110086 244.034029 208.110086 243.740241 
C 208.110086 243.446453 207.993363 243.164659 207.785624 242.95692 
C 207.577885 242.74918 207.29609 242.632457 207.002302 242.632457 
C 206.708515 242.632457 206.42672 242.74918 206.218981 242.95692 
C 206.011242 243.164659 205.894519 243.446453 205.894519 243.740241 
C 205.894519 244.034029 206.011242 244.315823 206.218981 244.523562 
C 206.42672 244.731302 206.708515 244.848025 207.002302 244.848025 
z
" clip-path="url(#p79e14357ff)" style="fill: #1f77b4; stroke: #1f77b4; stroke-width: 0.886227"/>
    <path d="M 209.681762 242.085335 
C 209.975549 242.085335 210.257344 241.968612 210.465083 241.760873 
C 210.672822 241.553134 210.789545 241.271339 210.789545 240.977552 
C 210.789545 240.683764 210.672822 240.401969 210.465083 240.19423 
C 210.257344 239.986491 209.975549 239.869768 209.681762 239.869768 
C 209.387974 239.869768 209.106179 239.986491 208.89844 240.19423 
C 208.690701 240.401969 208.573978 240.683764 208.573978 240.977552 
C 208.573978 241.271339 208.690701 241.553134 208.89844 241.760873 
C 209.106179 241.968612 209.387974 242.085335 209.681762 242.085335 
z
" clip-path="url(#p79e14357ff)" style="fill: #1f77b4; stroke: #1f77b4; stroke-width: 0.886227"/>
    <path d="M 212.361221 241.204623 
C 212.655008 241.204623 212.936803 241.0879 213.144542 240.88016 
C 213.352281 240.672421 213.469004 240.390627 213.469004 240.096839 
C 213.469004 239.803051 213.352281 239.521257 213.144542 239.313518 
C 212.936803 239.105778 212.655008 238.989055 212.361221 238.989055 
C 212.067433 238.989055 211.785639 239.105778 211.577899 239.313518 
C 211.37016 239.521257 211.253437 239.803051 211.253437 240.096839 
C 211.253437 240.390627 211.37016 240.672421 211.577899 240.88016 
C 211.785639 241.0879 212.067433 241.204623 212.361221 241.204623 
z
" clip-path="url(#p79e14357ff)" style="fill: #1f77b4; stroke: #1f77b4; stroke-width: 0.886227"/>
    <path d="M 215.04068 238.679764 
C 215.334467 238.679764 215.616262 238.563041 215.824001 238.355302 
C 216.03174 238.147563 216.148463 237.865768 216.148463 237.571981 
C 216.148463 237.278193 216.03174 236.996399 215.824001 236.788659 
C 215.616262 236.58092 215.334467 236.464197 215.04068 236.464197 
C 214.746892 236.464197 214.465098 236.58092 214.257358 236.788659 
C 214.049619 236.996399 213.932896 237.278193 213.932896 237.571981 
C 213.932896 237.865768 214.049619 238.147563 214.257358 238.355302 
C 214.465098 238.563041 214.746892 238.679764 215.04068 238.679764 
z
" clip-path="url(#p79e14357ff)" style="fill: #1f77b4; stroke: #1f77b4; stroke-width: 0.886227"/>
   </g>
   <g id="line2d_27">
    <path d="M 64.990969 254.696828 
L 67.670429 254.696818 
L 70.349888 254.696665 
L 73.029347 254.696627 
L 75.708806 254.696599 
L 78.388265 254.696564 
L 81.067724 254.696546 
L 83.747183 254.696537 
L 86.426642 254.696527 
L 89.106101 254.696493 
L 91.785561 254.696432 
L 94.46502 254.696387 
L 97.144479 254.696339 
L 99.823938 254.69629 
L 102.503397 254.696242 
L 105.182856 254.69623 
L 107.862315 254.696218 
L 110.541774 254.695853 
L 113.221233 254.695816 
L 115.900693 254.695697 
L 118.580152 254.695447 
L 121.259611 254.695428 
L 123.93907 254.695252 
L 126.618529 254.694993 
L 129.297988 254.692684 
L 131.977447 254.690337 
L 134.656906 254.687826 
L 137.336365 254.654693 
L 140.015825 254.650052 
L 142.695284 254.632651 
L 145.374743 254.603059 
L 148.054202 254.562086 
L 150.733661 254.491154 
L 153.41312 254.332473 
L 156.092579 254.322986 
L 158.772038 254.207639 
L 161.451497 253.890833 
L 164.130957 253.850777 
L 166.810416 253.840543 
L 169.489875 253.445754 
L 172.169334 253.421002 
L 174.848793 253.36425 
L 177.528252 252.981302 
L 180.207711 252.980906 
L 182.88717 252.694677 
L 185.56663 252.476245 
L 188.246089 252.322351 
L 190.925548 251.757227 
L 193.605007 249.638011 
L 196.284466 249.29338 
L 198.963925 248.974065 
L 201.643384 248.767461 
L 204.322843 247.832223 
L 207.002302 243.740241 
L 209.681762 240.977552 
L 212.361221 240.096839 
L 215.04068 237.571981 
" clip-path="url(#p79e14357ff)" style="fill: none; stroke: #1f77b4; stroke-width: 0.886227"/>
   </g>
   <g id="LineCollection_1">
    <path d="M 43.555296 237.398204 
L 456.192 237.398204 
" clip-path="url(#p79e14357ff)" style="fill: none; stroke-dasharray: 3.27904,1.417963; stroke-dashoffset: 0; stroke: #808080; stroke-width: 0.886227"/>
   </g>
  </g>
  <g id="text_10">
   <!-- Utopia performance (SAT Competition 2009, CRAFTED instances) -->
   <g transform="translate(43.555296 14.471008) scale(0.132 -0.132)">
    <defs>
     <path id="CMR17-55" d="M 3456 1433 
C 3456 579 2899 38 2291 38 
C 1965 38 1670 210 1491 477 
C 1286 783 1261 1178 1261 1401 
L 1261 3874 
C 1261 4160 1331 4160 1773 4160 
L 1773 4320 
C 1587 4320 1248 4320 1050 4320 
C 851 4320 512 4320 326 4320 
L 326 4160 
C 768 4160 838 4160 838 3874 
L 838 1433 
C 838 516 1536 -128 2278 -128 
C 3110 -128 3590 719 3590 1344 
L 3590 3766 
C 3590 4122 3917 4160 4102 4160 
L 4102 4326 
C 3955 4320 3686 4320 3526 4320 
C 3366 4320 3091 4320 2944 4326 
L 2944 4160 
C 3456 4160 3456 3861 3456 3702 
L 3456 1433 
z
" transform="scale(0.015625)"/>
     <path id="CMR17-74" d="M 966 2560 
L 1862 2560 
L 1862 2725 
L 966 2725 
L 966 3904 
L 851 3904 
C 838 3245 614 2668 70 2668 
L 70 2560 
L 627 2560 
L 627 771 
C 627 650 627 -64 1370 -64 
C 1747 -64 1965 306 1965 777 
L 1965 1140 
L 1850 1140 
L 1850 783 
C 1850 344 1677 51 1408 51 
C 1222 51 966 178 966 758 
L 966 2560 
z
" transform="scale(0.015625)"/>
     <path id="CMR17-6f" d="M 2758 1356 
C 2758 2176 2163 2816 1466 2816 
C 768 2816 173 2176 173 1356 
C 173 551 768 -64 1466 -64 
C 2163 -64 2758 551 2758 1356 
z
M 1466 51 
C 1165 51 909 230 762 480 
C 602 767 582 1126 582 1408 
C 582 1677 595 2010 762 2298 
C 890 2509 1139 2714 1466 2714 
C 1754 2714 1997 2554 2150 2330 
C 2349 2029 2349 1607 2349 1408 
C 2349 1158 2336 775 2163 467 
C 1984 173 1709 51 1466 51 
z
" transform="scale(0.015625)"/>
     <path id="CMR17-70" d="M 1408 -1063 
C 998 -1063 973 -1037 973 -789 
L 973 402 
C 1158 134 1427 -38 1766 -38 
C 2406 -38 3053 523 3053 1388 
C 3053 2191 2496 2802 1837 2802 
C 1453 2802 1139 2592 960 2338 
L 960 2802 
L 198 2732 
L 198 2567 
C 576 2567 634 2528 634 2223 
L 634 -789 
C 634 -1031 608 -1063 198 -1063 
L 198 -1228 
C 352 -1216 634 -1216 800 -1216 
C 966 -1216 1254 -1216 1408 -1228 
L 1408 -1063 
z
M 973 2012 
C 973 2102 973 2235 1222 2471 
C 1254 2497 1472 2688 1792 2688 
C 2259 2688 2643 2108 2643 1382 
C 2643 656 2234 64 1728 64 
C 1498 64 1248 172 1056 472 
C 973 612 973 650 973 752 
L 973 2012 
z
" transform="scale(0.015625)"/>
     <path id="CMR17-69" d="M 992 3909 
C 992 4049 877 4170 730 4170 
C 589 4170 467 4056 467 3909 
C 467 3769 582 3648 730 3648 
C 870 3648 992 3763 992 3909 
z
M 243 2706 
L 243 2541 
C 602 2541 653 2502 653 2197 
L 653 427 
C 653 184 627 153 218 153 
L 218 -13 
C 371 0 646 0 806 0 
C 960 0 1222 0 1370 -13 
L 1370 153 
C 992 153 979 191 979 420 
L 979 2776 
L 243 2706 
z
" transform="scale(0.015625)"/>
     <path id="CMR17-61" d="M 2304 1653 
C 2304 2072 2304 2294 2035 2543 
C 1798 2752 1523 2816 1306 2816 
C 800 2816 435 2407 435 1971 
C 435 1728 627 1728 666 1728 
C 749 1728 896 1778 896 1954 
C 896 2112 774 2181 666 2181 
C 640 2181 608 2174 589 2168 
C 723 2592 1069 2714 1293 2714 
C 1613 2714 1965 2429 1965 1885 
L 1965 1600 
C 1587 1600 1133 1549 774 1357 
C 371 1133 256 813 256 570 
C 256 77 832 -64 1171 -64 
C 1523 -64 1850 139 1990 511 
C 2003 233 2182 -18 2464 -18 
C 2598 -18 2938 70 2938 567 
L 2938 920 
L 2822 920 
L 2822 562 
C 2822 178 2650 128 2566 128 
C 2304 128 2304 458 2304 738 
L 2304 1653 
z
M 1965 870 
C 1965 317 1568 38 1216 38 
C 896 38 646 275 646 570 
C 646 761 730 1100 1101 1305 
C 1408 1478 1760 1504 1965 1504 
L 1965 870 
z
" transform="scale(0.015625)"/>
     <path id="CMR17-65" d="M 2438 1472 
C 2464 1498 2464 1511 2464 1576 
C 2464 2238 2118 2816 1389 2816 
C 710 2816 173 2169 173 1383 
C 173 551 781 -64 1459 -64 
C 2176 -64 2458 607 2458 740 
C 2458 784 2419 784 2406 784 
C 2362 784 2355 771 2330 696 
C 2189 265 1837 51 1504 51 
C 1229 51 954 203 781 480 
C 582 803 582 1176 582 1472 
L 2438 1472 
z
M 589 1568 
C 634 2505 1126 2714 1382 2714 
C 1818 2714 2112 2297 2118 1568 
L 589 1568 
z
" transform="scale(0.015625)"/>
     <path id="CMR17-72" d="M 960 1497 
C 960 2112 1222 2688 1702 2688 
C 1747 2688 1792 2682 1837 2662 
C 1837 2662 1696 2617 1696 2452 
C 1696 2298 1818 2234 1914 2234 
C 1990 2234 2131 2279 2131 2458 
C 2131 2663 1926 2790 1709 2790 
C 1222 2790 1011 2317 947 2093 
L 941 2093 
L 941 2790 
L 198 2720 
L 198 2554 
C 576 2554 634 2515 634 2208 
L 634 428 
C 634 184 608 153 198 153 
L 198 -13 
C 352 0 646 0 813 0 
C 998 0 1325 0 1498 -13 
L 1498 153 
C 1037 153 960 153 960 440 
L 960 1497 
z
" transform="scale(0.015625)"/>
     <path id="CMR17-66" d="M 979 2560 
L 1709 2560 
L 1709 2725 
L 966 2725 
L 966 3494 
C 966 4022 1235 4352 1510 4352 
C 1594 4352 1690 4327 1754 4282 
C 1702 4269 1568 4225 1568 4067 
C 1568 3901 1696 3850 1786 3850 
C 1875 3850 2003 3901 2003 4067 
C 2003 4308 1773 4454 1517 4454 
C 1152 4454 653 4156 653 3481 
L 653 2725 
L 141 2725 
L 141 2560 
L 653 2560 
L 653 427 
C 653 184 627 153 218 153 
L 218 -13 
C 371 0 666 0 832 0 
C 1018 0 1344 0 1517 -13 
L 1517 153 
C 1056 153 979 153 979 439 
L 979 2560 
z
" transform="scale(0.015625)"/>
     <path id="CMR17-6d" d="M 4326 1933 
C 4326 2252 4269 2790 3507 2790 
C 3072 2790 2771 2496 2656 2151 
L 2650 2151 
C 2573 2676 2195 2790 1837 2790 
C 1331 2790 1069 2400 973 2144 
L 966 2144 
L 966 2790 
L 211 2720 
L 211 2554 
C 589 2554 646 2515 646 2208 
L 646 428 
C 646 184 621 153 211 153 
L 211 -13 
C 365 0 646 0 813 0 
C 979 0 1267 0 1421 -13 
L 1421 153 
C 1011 153 986 178 986 428 
L 986 1658 
C 986 2247 1344 2688 1792 2688 
C 2266 2688 2317 2266 2317 1958 
L 2317 428 
C 2317 184 2291 153 1882 153 
L 1882 -13 
C 2035 0 2317 0 2483 0 
C 2650 0 2938 0 3091 -13 
L 3091 153 
C 2682 153 2656 178 2656 428 
L 2656 1658 
C 2656 2247 3014 2688 3462 2688 
C 3936 2688 3987 2266 3987 1958 
L 3987 428 
C 3987 184 3962 153 3552 153 
L 3552 -13 
C 3706 0 3987 0 4154 0 
C 4320 0 4608 0 4762 -13 
L 4762 153 
C 4352 153 4326 178 4326 428 
L 4326 1933 
z
" transform="scale(0.015625)"/>
     <path id="CMR17-6e" d="M 2656 1933 
C 2656 2259 2592 2790 1837 2790 
C 1331 2790 1069 2400 973 2144 
L 966 2144 
L 966 2790 
L 211 2720 
L 211 2554 
C 589 2554 646 2515 646 2208 
L 646 428 
C 646 184 621 153 211 153 
L 211 -13 
C 365 0 646 0 813 0 
C 979 0 1267 0 1421 -13 
L 1421 153 
C 1011 153 986 178 986 428 
L 986 1658 
C 986 2247 1344 2688 1792 2688 
C 2266 2688 2317 2266 2317 1958 
L 2317 428 
C 2317 184 2291 153 1882 153 
L 1882 -13 
C 2035 0 2317 0 2483 0 
C 2650 0 2938 0 3091 -13 
L 3091 153 
C 2682 153 2656 178 2656 428 
L 2656 1933 
z
" transform="scale(0.015625)"/>
     <path id="CMR17-63" d="M 2234 2240 
C 2112 2240 1933 2240 1933 2017 
C 1933 1838 2080 1787 2163 1787 
C 2208 1787 2394 1807 2394 2024 
C 2394 2467 1958 2803 1466 2803 
C 787 2803 211 2178 211 1363 
C 211 516 813 -64 1466 -64 
C 2259 -64 2458 677 2458 748 
C 2458 774 2451 793 2406 793 
C 2362 793 2355 787 2330 703 
C 2163 180 1798 51 1523 51 
C 1114 51 621 427 621 1369 
C 621 2338 1094 2688 1472 2688 
C 1722 2688 2093 2573 2234 2240 
z
" transform="scale(0.015625)"/>
     <path id="CMR17-28" d="M 1958 -1561 
C 1958 -1555 1958 -1542 1939 -1523 
C 1645 -1224 858 -407 858 1581 
C 858 3569 1632 4379 1946 4697 
C 1946 4704 1958 4717 1958 4736 
C 1958 4755 1939 4768 1914 4768 
C 1843 4768 1299 4296 986 3594 
C 666 2887 576 2199 576 1588 
C 576 1128 621 351 1005 -471 
C 1312 -1135 1837 -1600 1914 -1600 
C 1946 -1600 1958 -1587 1958 -1561 
z
" transform="scale(0.015625)"/>
     <path id="CMR17-53" d="M 2803 4290 
C 2803 4404 2797 4411 2758 4411 
C 2720 4411 2707 4385 2682 4328 
L 2490 3907 
C 2246 4257 1875 4416 1472 4416 
C 819 4416 294 3901 294 3253 
C 294 3056 339 2776 557 2510 
C 794 2218 1018 2167 1530 2033 
C 1722 1982 2042 1899 2106 1874 
C 2470 1722 2662 1341 2662 985 
C 2662 527 2336 38 1779 38 
C 1094 38 454 419 410 1311 
C 403 1413 397 1419 352 1419 
C 301 1419 294 1413 294 1285 
L 294 -1 
C 294 -115 301 -122 339 -122 
C 384 -122 397 -90 486 108 
C 493 127 493 140 614 381 
C 934 -39 1472 -128 1779 -128 
C 2477 -128 2970 451 2970 1124 
C 2970 1454 2848 1708 2778 1823 
C 2509 2230 2221 2306 1914 2382 
C 1869 2402 1856 2402 1498 2490 
C 1152 2579 1005 2624 845 2796 
C 666 2992 602 3196 602 3399 
C 602 3812 934 4263 1478 4263 
C 2157 4263 2579 3786 2675 2993 
C 2694 2878 2701 2872 2746 2872 
C 2803 2872 2803 2891 2803 2999 
L 2803 4290 
z
" transform="scale(0.015625)"/>
     <path id="CMR17-41" d="M 2323 4378 
C 2291 4461 2278 4480 2214 4480 
C 2150 4480 2138 4461 2106 4378 
L 749 566 
C 627 223 371 153 147 153 
L 147 -13 
C 262 0 518 0 640 0 
C 800 0 1056 0 1210 -13 
L 1210 153 
C 909 153 864 361 864 439 
C 864 497 877 530 890 569 
L 1229 1536 
L 2906 1536 
L 3290 442 
C 3322 365 3322 352 3322 327 
C 3322 153 3046 153 2925 153 
L 2925 0 
C 3110 0 3443 0 3642 0 
C 3808 0 4128 0 4282 -13 
L 4282 153 
C 3942 153 3827 153 3744 387 
L 2323 4378 
z
M 2067 3893 
L 2848 1702 
L 1286 1702 
L 2067 3893 
z
" transform="scale(0.015625)"/>
     <path id="CMR17-54" d="M 3981 4326 
L 288 4326 
L 179 2918 
L 294 2918 
C 378 3976 467 4160 1453 4160 
C 1568 4160 1754 4160 1805 4154 
C 1926 4135 1926 4058 1926 3912 
L 1926 459 
C 1926 230 1907 160 1376 160 
L 1197 160 
L 1197 0 
C 1504 0 1824 0 2138 0 
C 2451 0 2771 0 3078 0 
L 3078 160 
L 2899 160 
C 2368 160 2349 230 2349 459 
L 2349 3912 
C 2349 4052 2349 4129 2464 4154 
C 2515 4160 2701 4160 2816 4160 
C 3795 4160 3891 3976 3974 2918 
L 4090 2918 
L 3981 4326 
z
" transform="scale(0.015625)"/>
     <path id="CMR17-43" d="M 3974 4289 
C 3974 4403 3968 4410 3930 4410 
C 3904 4410 3898 4403 3853 4327 
L 3571 3792 
C 3258 4187 2874 4416 2381 4416 
C 1286 4416 294 3456 294 2148 
C 294 826 1286 -128 2387 -128 
C 3366 -128 3974 730 3974 1461 
C 3974 1524 3974 1550 3917 1550 
C 3866 1550 3866 1531 3859 1474 
C 3808 585 3168 38 2477 38 
C 1824 38 781 495 781 2147 
C 781 3805 1843 4250 2464 4250 
C 3187 4250 3712 3628 3834 2745 
C 3846 2668 3846 2655 3904 2655 
C 3974 2655 3974 2668 3974 2783 
L 3974 4289 
z
" transform="scale(0.015625)"/>
     <path id="CMR17-39" d="M 2253 1864 
C 2253 464 1670 31 1190 31 
C 1043 31 685 31 538 294 
C 704 268 826 357 826 518 
C 826 692 685 749 595 749 
C 538 749 365 723 365 506 
C 365 71 742 -128 1203 -128 
C 1939 -128 2688 674 2688 2073 
C 2688 3817 1971 4179 1485 4179 
C 851 4179 243 3628 243 2778 
C 243 1991 762 1408 1414 1408 
C 1952 1408 2189 1903 2253 2112 
L 2253 1864 
z
M 1427 1510 
C 1254 1510 1011 1542 813 1922 
C 678 2169 678 2461 678 2771 
C 678 3146 678 3405 858 3684 
C 947 3817 1114 4032 1485 4032 
C 2240 4032 2240 2885 2240 2632 
C 2240 2182 2035 1510 1427 1510 
z
" transform="scale(0.015625)"/>
     <path id="CMR17-2c" d="M 1011 102 
C 1024 45 1024 25 1024 -77 
C 1024 -463 896 -817 627 -1139 
C 595 -1170 595 -1183 595 -1197 
C 595 -1222 621 -1248 646 -1248 
C 685 -1248 1126 -799 1126 -87 
C 1126 124 1101 522 800 522 
C 659 522 538 427 538 261 
C 538 96 659 0 800 0 
C 877 0 960 32 1011 102 
z
" transform="scale(0.015625)"/>
     <path id="CMR17-52" d="M 2509 2146 
C 3117 2268 3629 2676 3629 3186 
C 3629 3785 2950 4326 2054 4326 
L 333 4326 
L 333 4160 
C 774 4160 845 4160 845 3873 
L 845 415 
C 845 128 774 128 333 128 
L 333 -26 
C 518 -26 851 -26 1050 -26 
C 1248 -26 1581 -26 1766 -26 
L 1766 128 
C 1325 128 1254 128 1254 417 
L 1254 2112 
L 2003 2112 
C 2368 2112 2573 1964 2662 1881 
C 2918 1632 2918 1459 2918 1024 
C 2918 595 2918 377 3110 160 
C 3354 -102 3680 -128 3821 -128 
C 4294 -128 4365 396 4365 503 
C 4365 540 4365 585 4307 585 
C 4256 585 4250 547 4250 522 
C 4218 112 4032 -26 3834 -26 
C 3482 -26 3443 375 3405 764 
C 3386 898 3373 993 3360 1133 
C 3322 1452 3270 1917 2509 2146 
z
M 1984 2214 
L 1254 2214 
L 1254 3913 
C 1254 4129 1267 4160 1523 4160 
L 1990 4160 
C 2522 4160 3142 3977 3142 3190 
C 3142 2372 2464 2214 1984 2214 
z
" transform="scale(0.015625)"/>
     <path id="CMR17-46" d="M 3482 4325 
L 326 4325 
L 326 4160 
C 768 4160 838 4160 838 3874 
L 838 446 
C 838 160 768 160 326 160 
L 326 0 
C 512 0 870 0 1069 0 
C 1331 0 1638 0 1901 0 
L 1901 160 
L 1760 160 
C 1274 160 1261 223 1261 452 
L 1261 2075 
L 1837 2075 
C 2432 2075 2490 1865 2490 1332 
L 2605 1332 
L 2605 2987 
L 2490 2987 
C 2490 2450 2432 2240 1837 2240 
L 1261 2240 
L 1261 3911 
C 1261 4128 1274 4160 1530 4160 
L 2355 4160 
C 3322 4160 3430 3765 3520 2916 
L 3635 2916 
L 3482 4325 
z
" transform="scale(0.015625)"/>
     <path id="CMR17-45" d="M 3885 1615 
L 3770 1615 
C 3629 676 3546 166 2419 166 
L 1530 166 
C 1274 166 1261 197 1261 414 
L 1261 2176 
L 1862 2176 
C 2464 2176 2522 1960 2522 1430 
L 2637 1430 
L 2637 3081 
L 2522 3081 
C 2522 2557 2464 2342 1862 2342 
L 1261 2342 
L 1261 3913 
C 1261 4128 1274 4160 1530 4160 
L 2406 4160 
C 3398 4160 3514 3769 3603 2929 
L 3718 2929 
L 3565 4325 
L 326 4325 
L 326 4160 
C 768 4160 838 4160 838 3874 
L 838 451 
C 838 166 768 166 326 166 
L 326 0 
L 3654 0 
L 3885 1615 
z
" transform="scale(0.015625)"/>
     <path id="CMR17-44" d="M 333 4352 
L 333 4186 
C 774 4186 845 4186 845 3900 
L 845 452 
C 845 166 774 166 333 166 
L 333 0 
L 2368 0 
C 3398 0 4224 943 4224 2141 
C 4224 3346 3411 4352 2368 4352 
L 333 4352 
z
M 1523 166 
C 1267 166 1254 197 1254 414 
L 1254 3938 
C 1254 4155 1267 4186 1523 4186 
L 2240 4186 
C 2771 4186 3750 3874 3750 2141 
C 3750 1242 3488 879 3366 707 
C 3213 510 2848 166 2240 166 
L 1523 166 
z
" transform="scale(0.015625)"/>
     <path id="CMR17-73" d="M 1978 2697 
C 1978 2813 1971 2819 1933 2819 
C 1907 2819 1901 2813 1824 2717 
C 1805 2691 1747 2626 1728 2601 
C 1523 2819 1235 2819 1126 2819 
C 416 2819 160 2447 160 2076 
C 160 1498 813 1365 998 1325 
C 1402 1243 1542 1217 1677 1101 
C 1760 1025 1901 884 1901 654 
C 1901 384 1747 38 1158 38 
C 602 38 403 460 288 1021 
C 269 1110 269 1117 218 1117 
C 166 1117 160 1110 160 983 
L 160 63 
C 160 -51 166 -58 205 -58 
C 237 -58 243 -51 275 0 
C 314 57 410 211 448 276 
C 576 103 800 -64 1158 -64 
C 1792 -64 2131 283 2131 784 
C 2131 1112 1958 1285 1875 1362 
C 1683 1561 1459 1606 1190 1657 
C 838 1735 390 1825 390 2217 
C 390 2383 480 2737 1126 2737 
C 1811 2737 1850 2094 1862 1888 
C 1869 1856 1901 1849 1920 1849 
C 1978 1849 1978 1869 1978 1978 
L 1978 2697 
z
" transform="scale(0.015625)"/>
     <path id="CMR17-29" d="M 1683 1581 
C 1683 2040 1638 2817 1254 3639 
C 947 4303 422 4768 346 4768 
C 326 4768 301 4761 301 4729 
C 301 4717 307 4710 314 4697 
C 621 4378 1402 3568 1402 1584 
C 1402 -407 627 -1217 314 -1537 
C 307 -1549 301 -1556 301 -1568 
C 301 -1600 326 -1600 346 -1600 
C 416 -1600 960 -1128 1274 -426 
C 1594 281 1683 969 1683 1581 
z
" transform="scale(0.015625)"/>
    </defs>
    <use xlink:href="#CMR17-55" transform="scale(0.996264)"/>
    <use xlink:href="#CMR17-74" transform="translate(69.07243 0) scale(0.996264)"/>
    <use xlink:href="#CMR17-6f" transform="translate(104.353198 0) scale(0.996264)"/>
    <use xlink:href="#CMR17-70" transform="translate(150.043675 0) scale(0.996264)"/>
    <use xlink:href="#CMR17-69" transform="translate(200.939045 0) scale(0.996264)"/>
    <use xlink:href="#CMR17-61" transform="translate(225.810103 0) scale(0.996264)"/>
    <use xlink:href="#CMR17-70" transform="translate(301.576546 0) scale(0.996264)"/>
    <use xlink:href="#CMR17-65" transform="translate(355.074355 0) scale(0.996264)"/>
    <use xlink:href="#CMR17-72" transform="translate(395.560015 0) scale(0.996264)"/>
    <use xlink:href="#CMR17-66" transform="translate(430.840783 0) scale(0.996264)"/>
    <use xlink:href="#CMR17-6f" transform="translate(458.314296 0) scale(0.996264)"/>
    <use xlink:href="#CMR17-72" transform="translate(504.004773 0) scale(0.996264)"/>
    <use xlink:href="#CMR17-6d" transform="translate(539.285541 0) scale(0.996264)"/>
    <use xlink:href="#CMR17-61" transform="translate(616.20513 0) scale(0.996264)"/>
    <use xlink:href="#CMR17-6e" transform="translate(661.895608 0) scale(0.996264)"/>
    <use xlink:href="#CMR17-63" transform="translate(712.790977 0) scale(0.996264)"/>
    <use xlink:href="#CMR17-65" transform="translate(753.276638 0) scale(0.996264)"/>
    <use xlink:href="#CMR17-28" transform="translate(823.838265 0) scale(0.996264)"/>
    <use xlink:href="#CMR17-53" transform="translate(859.119032 0) scale(0.996264)"/>
    <use xlink:href="#CMR17-41" transform="translate(910.014402 0) scale(0.996264)"/>
    <use xlink:href="#CMR17-54" transform="translate(971.279577 0) scale(0.996264)"/>
    <use xlink:href="#CMR17-43" transform="translate(1067.865423 0) scale(0.996264)"/>
    <use xlink:href="#CMR17-6f" transform="translate(1134.375304 0) scale(0.996264)"/>
    <use xlink:href="#CMR17-6d" transform="translate(1180.065781 0) scale(0.996264)"/>
    <use xlink:href="#CMR17-70" transform="translate(1256.985371 0) scale(0.996264)"/>
    <use xlink:href="#CMR17-65" transform="translate(1310.48318 0) scale(0.996264)"/>
    <use xlink:href="#CMR17-74" transform="translate(1350.96884 0) scale(0.996264)"/>
    <use xlink:href="#CMR17-69" transform="translate(1386.249608 0) scale(0.996264)"/>
    <use xlink:href="#CMR17-74" transform="translate(1411.120666 0) scale(0.996264)"/>
    <use xlink:href="#CMR17-69" transform="translate(1446.401434 0) scale(0.996264)"/>
    <use xlink:href="#CMR17-6f" transform="translate(1471.272493 0) scale(0.996264)"/>
    <use xlink:href="#CMR17-6e" transform="translate(1516.96297 0) scale(0.996264)"/>
    <use xlink:href="#CMR17-32" transform="translate(1597.934306 0) scale(0.996264)"/>
    <use xlink:href="#CMR17-30" transform="translate(1643.624783 0) scale(0.996264)"/>
    <use xlink:href="#CMR17-30" transform="translate(1689.31526 0) scale(0.996264)"/>
    <use xlink:href="#CMR17-39" transform="translate(1735.005737 0) scale(0.996264)"/>
    <use xlink:href="#CMR17-2c" transform="translate(1780.696214 0) scale(0.996264)"/>
    <use xlink:href="#CMR17-43" transform="translate(1835.643239 0) scale(0.996264)"/>
    <use xlink:href="#CMR17-52" transform="translate(1902.15312 0) scale(0.996264)"/>
    <use xlink:href="#CMR17-41" transform="translate(1969.944222 0) scale(0.996264)"/>
    <use xlink:href="#CMR17-46" transform="translate(2039.016651 0) scale(0.996264)"/>
    <use xlink:href="#CMR17-54" transform="translate(2099.000498 0) scale(0.996264)"/>
    <use xlink:href="#CMR17-45" transform="translate(2165.510379 0) scale(0.996264)"/>
    <use xlink:href="#CMR17-44" transform="translate(2228.096679 0) scale(0.996264)"/>
    <use xlink:href="#CMR17-69" transform="translate(2328.566201 0) scale(0.996264)"/>
    <use xlink:href="#CMR17-6e" transform="translate(2353.43726 0) scale(0.996264)"/>
    <use xlink:href="#CMR17-73" transform="translate(2404.33263 0) scale(0.996264)"/>
    <use xlink:href="#CMR17-74" transform="translate(2440.133967 0) scale(0.996264)"/>
    <use xlink:href="#CMR17-61" transform="translate(2475.414735 0) scale(0.996264)"/>
    <use xlink:href="#CMR17-6e" transform="translate(2521.105212 0) scale(0.996264)"/>
    <use xlink:href="#CMR17-63" transform="translate(2572.000582 0) scale(0.996264)"/>
    <use xlink:href="#CMR17-65" transform="translate(2612.486242 0) scale(0.996264)"/>
    <use xlink:href="#CMR17-73" transform="translate(2652.971903 0) scale(0.996264)"/>
    <use xlink:href="#CMR17-29" transform="translate(2688.77324 0) scale(0.996264)"/>
   </g>
  </g>
  <g id="text_11">
   <!-- Used a \textbf{shorter} timeout of 100s -->
   <g transform="translate(43.555296 29.977013) scale(0.11 -0.11)">
    <defs>
     <path id="CMR17-64" d="M 1869 4326 
L 1869 4160 
C 2246 4160 2304 4122 2304 3820 
L 2304 2345 
C 2278 2377 2016 2790 1498 2790 
C 845 2790 211 2208 211 1364 
C 211 525 806 -64 1434 -64 
C 1978 -64 2259 337 2291 380 
L 2291 -63 
L 3066 -63 
L 3066 128 
C 2688 128 2630 166 2630 473 
L 2630 4396 
L 1869 4326 
z
M 2291 755 
C 2291 563 2176 390 2029 262 
C 1811 70 1594 38 1472 38 
C 1286 38 621 134 621 1356 
C 621 2612 1363 2688 1530 2688 
C 1824 2688 2061 2522 2208 2291 
C 2291 2157 2291 2138 2291 2023 
L 2291 755 
z
" transform="scale(0.015625)"/>
     <path id="CMBX12-73" d="M 2413 2715 
C 2413 2836 2413 2880 2317 2880 
C 2278 2880 2266 2880 2170 2823 
C 2144 2804 2074 2759 2042 2740 
C 1862 2842 1626 2880 1395 2880 
C 1203 2880 243 2880 243 2056 
C 243 1389 1037 1250 1235 1218 
C 1408 1187 1619 1148 1645 1148 
C 1901 1091 2157 932 2157 666 
C 2157 178 1574 178 1440 178 
C 1114 178 710 279 531 896 
C 493 1023 486 1023 378 1023 
C 243 1023 243 1004 243 858 
L 243 132 
C 243 12 243 -32 339 -32 
C 384 -32 397 -32 525 70 
L 691 191 
C 979 -32 1325 -32 1440 -32 
C 1792 -32 2592 44 2592 888 
C 2592 1192 2426 1402 2298 1516 
C 2035 1731 1818 1770 1472 1833 
C 1062 1903 678 1973 678 2277 
C 678 2689 1248 2689 1382 2689 
C 2093 2689 2131 2245 2144 2087 
C 2150 2005 2202 2005 2278 2005 
C 2413 2005 2413 2024 2413 2170 
L 2413 2715 
z
" transform="scale(0.015625)"/>
     <path id="CMBX12-68" d="M 3398 1924 
C 3398 2525 3136 2834 2432 2834 
C 1786 2834 1472 2384 1382 2194 
L 1376 2194 
L 1376 4416 
L 269 4416 
L 269 4117 
C 666 4117 710 4117 710 3858 
L 710 260 
L 269 260 
L 269 -13 
C 416 0 877 0 1056 0 
C 1235 0 1702 0 1850 -13 
L 1850 260 
L 1408 260 
L 1408 1607 
C 1408 2289 1920 2624 2330 2624 
C 2566 2624 2701 2473 2701 1993 
L 2701 260 
L 2259 260 
L 2259 -13 
C 2406 0 2867 0 3046 0 
C 3226 0 3693 0 3840 -13 
L 3840 260 
L 3398 260 
L 3398 1924 
z
" transform="scale(0.015625)"/>
     <path id="CMBX12-6f" d="M 3392 1395 
C 3392 2252 2803 2880 1798 2880 
C 755 2880 198 2220 198 1395 
C 198 565 787 -32 1792 -32 
C 2835 -32 3392 596 3392 1395 
z
M 1798 197 
C 966 197 966 939 966 1459 
C 966 1757 966 2074 1088 2303 
C 1229 2556 1517 2670 1792 2670 
C 2157 2670 2387 2499 2496 2322 
C 2624 2093 2624 1763 2624 1459 
C 2624 932 2624 197 1798 197 
z
" transform="scale(0.015625)"/>
     <path id="CMBX12-72" d="M 1331 1411 
C 1331 1619 1376 2624 2125 2624 
C 2035 2555 1990 2448 1990 2336 
C 1990 2079 2202 1972 2362 1972 
C 2522 1972 2733 2079 2733 2337 
C 2733 2658 2400 2834 2093 2834 
C 1587 2834 1370 2401 1280 2137 
L 1274 2137 
L 1274 2816 
L 224 2816 
L 224 2517 
C 621 2517 666 2517 666 2270 
L 666 260 
L 224 260 
L 224 -13 
C 371 0 851 0 1030 0 
C 1216 0 1734 0 1888 -13 
L 1888 260 
L 1331 260 
L 1331 1411 
z
" transform="scale(0.015625)"/>
     <path id="CMBX12-74" d="M 1350 2560 
L 2272 2560 
L 2272 2833 
L 1350 2833 
L 1350 4032 
L 1082 4032 
C 1075 3405 768 2776 134 2776 
L 134 2560 
L 653 2560 
L 653 789 
C 653 114 1178 -32 1638 -32 
C 2112 -32 2394 325 2394 795 
L 2394 1133 
L 2125 1133 
L 2125 802 
C 2125 381 1933 197 1734 197 
C 1350 197 1350 624 1350 770 
L 1350 2560 
z
" transform="scale(0.015625)"/>
     <path id="CMBX12-65" d="M 2893 1408 
C 3040 1408 3078 1408 3078 1567 
C 3078 1758 3034 2233 2739 2532 
C 2470 2798 2112 2880 1741 2880 
C 742 2880 198 2233 198 1434 
C 198 545 858 -32 1824 -32 
C 2790 -32 3078 640 3078 748 
C 3078 843 2982 843 2944 843 
C 2842 843 2835 824 2797 742 
C 2630 330 2208 197 1901 197 
C 973 197 966 1053 966 1408 
L 2893 1408 
z
M 966 1593 
C 979 1852 986 2100 1120 2328 
C 1242 2531 1466 2670 1741 2670 
C 2426 2670 2483 1909 2490 1593 
L 966 1593 
z
" transform="scale(0.015625)"/>
     <path id="CMR17-75" d="M 1882 2693 
L 1882 2528 
C 2259 2528 2317 2489 2317 2186 
L 2317 1032 
C 2317 500 2029 38 1555 38 
C 1030 38 986 348 986 678 
L 986 2763 
L 211 2693 
L 211 2528 
C 467 2528 640 2528 646 2274 
L 646 1058 
C 646 633 646 361 813 183 
C 896 101 1056 -64 1517 -64 
C 2061 -64 2272 377 2323 506 
L 2330 506 
L 2330 -63 
L 3091 -63 
L 3091 128 
C 2714 128 2656 166 2656 473 
L 2656 2763 
L 1882 2693 
z
" transform="scale(0.015625)"/>
    </defs>
    <use xlink:href="#CMR17-55" transform="scale(0.996264)"/>
    <use xlink:href="#CMR17-73" transform="translate(69.07243 0) scale(0.996264)"/>
    <use xlink:href="#CMR17-65" transform="translate(104.873767 0) scale(0.996264)"/>
    <use xlink:href="#CMR17-64" transform="translate(145.359428 0) scale(0.996264)"/>
    <use xlink:href="#CMR17-61" transform="translate(226.330764 0) scale(0.996264)"/>
    <use xlink:href="#CMBX12-73" transform="translate(302.097207 0) scale(0.996264)"/>
    <use xlink:href="#CMBX12-68" transform="translate(346.306545 0) scale(0.996264)"/>
    <use xlink:href="#CMBX12-6f" transform="translate(408.573045 0) scale(0.996264)"/>
    <use xlink:href="#CMBX12-72" transform="translate(464.612896 0) scale(0.996264)"/>
    <use xlink:href="#CMBX12-74" transform="translate(510.390403 0) scale(0.996264)"/>
    <use xlink:href="#CMBX12-65" transform="translate(553.976953 0) scale(0.996264)"/>
    <use xlink:href="#CMBX12-72" transform="translate(605.116221 0) scale(0.996264)"/>
    <use xlink:href="#CMR17-74" transform="translate(680.969694 0) scale(0.996264)"/>
    <use xlink:href="#CMR17-69" transform="translate(716.250462 0) scale(0.996264)"/>
    <use xlink:href="#CMR17-6d" transform="translate(741.121521 0) scale(0.996264)"/>
    <use xlink:href="#CMR17-65" transform="translate(818.04111 0) scale(0.996264)"/>
    <use xlink:href="#CMR17-6f" transform="translate(858.526771 0) scale(0.996264)"/>
    <use xlink:href="#CMR17-75" transform="translate(904.217248 0) scale(0.996264)"/>
    <use xlink:href="#CMR17-74" transform="translate(955.112618 0) scale(0.996264)"/>
    <use xlink:href="#CMR17-6f" transform="translate(1020.469352 0) scale(0.996264)"/>
    <use xlink:href="#CMR17-66" transform="translate(1066.159829 0) scale(0.996264)"/>
    <use xlink:href="#CMR17-31" transform="translate(1123.709308 0) scale(0.996264)"/>
    <use xlink:href="#CMR17-30" transform="translate(1169.399785 0) scale(0.996264)"/>
    <use xlink:href="#CMR17-30" transform="translate(1215.090262 0) scale(0.996264)"/>
    <use xlink:href="#CMR17-73" transform="translate(1260.780739 0) scale(0.996264)"/>
   </g>
  </g>
  <g id="text_12">
   <!-- Solved instances -->
   <g transform="translate(210.847686 289.839864) scale(0.11 -0.11)">
    <defs>
     <path id="CMR17-6c" d="M 979 4396 
L 218 4326 
L 218 4160 
C 595 4160 653 4122 653 3817 
L 653 426 
C 653 184 627 153 218 153 
L 218 -13 
C 371 0 653 0 813 0 
C 979 0 1261 0 1414 -13 
L 1414 153 
C 1005 153 979 178 979 426 
L 979 4396 
z
" transform="scale(0.015625)"/>
     <path id="CMR17-76" d="M 2502 2163 
C 2560 2304 2662 2560 3034 2560 
L 3034 2726 
C 2912 2726 2752 2726 2630 2726 
C 2496 2726 2285 2726 2157 2732 
L 2157 2566 
C 2317 2553 2406 2477 2406 2311 
C 2406 2253 2406 2240 2368 2151 
L 1664 377 
L 902 2286 
C 864 2369 864 2381 864 2407 
C 864 2560 1075 2560 1171 2560 
L 1171 2732 
C 1018 2726 736 2726 576 2726 
C 403 2726 205 2726 64 2732 
L 64 2560 
C 307 2560 442 2560 518 2362 
L 1446 44 
C 1485 -51 1491 -64 1549 -64 
C 1606 -64 1613 -51 1651 44 
L 2502 2163 
z
" transform="scale(0.015625)"/>
    </defs>
    <use xlink:href="#CMR17-53" transform="scale(0.996264)"/>
    <use xlink:href="#CMR17-6f" transform="translate(50.89537 0) scale(0.996264)"/>
    <use xlink:href="#CMR17-6c" transform="translate(96.585847 0) scale(0.996264)"/>
    <use xlink:href="#CMR17-76" transform="translate(121.456905 0) scale(0.996264)"/>
    <use xlink:href="#CMR17-65" transform="translate(167.147367 0) scale(0.996264)"/>
    <use xlink:href="#CMR17-64" transform="translate(207.633028 0) scale(0.996264)"/>
    <use xlink:href="#CMR17-69" transform="translate(288.604364 0) scale(0.996264)"/>
    <use xlink:href="#CMR17-6e" transform="translate(313.475422 0) scale(0.996264)"/>
    <use xlink:href="#CMR17-73" transform="translate(364.370792 0) scale(0.996264)"/>
    <use xlink:href="#CMR17-74" transform="translate(400.17213 0) scale(0.996264)"/>
    <use xlink:href="#CMR17-61" transform="translate(435.452898 0) scale(0.996264)"/>
    <use xlink:href="#CMR17-6e" transform="translate(481.143375 0) scale(0.996264)"/>
    <use xlink:href="#CMR17-63" transform="translate(532.038744 0) scale(0.996264)"/>
    <use xlink:href="#CMR17-65" transform="translate(572.524405 0) scale(0.996264)"/>
    <use xlink:href="#CMR17-73" transform="translate(613.010065 0) scale(0.996264)"/>
   </g>
  </g>
  <g id="text_13">
   <!-- CPU time (s) -->
   <g transform="translate(12.827178 183.423914) rotate(-90) scale(0.11 -0.11)">
    <defs>
     <path id="CMR17-50" d="M 1267 2042 
L 2291 2042 
C 3117 2042 3718 2578 3718 3184 
C 3718 3791 3130 4352 2291 4352 
L 333 4352 
L 333 4186 
C 774 4186 845 4186 845 3899 
L 845 446 
C 845 160 774 160 333 160 
L 333 0 
C 518 0 858 0 1056 0 
C 1254 0 1594 0 1779 0 
L 1779 160 
C 1338 160 1267 160 1267 446 
L 1267 2042 
z
M 1254 2176 
L 1254 3938 
C 1254 4155 1267 4186 1523 4186 
L 2170 4186 
C 2995 4186 3232 3714 3232 3184 
C 3232 2604 2950 2176 2170 2176 
L 1254 2176 
z
" transform="scale(0.015625)"/>
    </defs>
    <use xlink:href="#CMR17-43" transform="scale(0.996264)"/>
    <use xlink:href="#CMR17-50" transform="translate(66.509881 0) scale(0.996264)"/>
    <use xlink:href="#CMR17-55" transform="translate(129.096181 0) scale(0.996264)"/>
    <use xlink:href="#CMR17-74" transform="translate(228.244577 0) scale(0.996264)"/>
    <use xlink:href="#CMR17-69" transform="translate(263.525345 0) scale(0.996264)"/>
    <use xlink:href="#CMR17-6d" transform="translate(288.396404 0) scale(0.996264)"/>
    <use xlink:href="#CMR17-65" transform="translate(365.315993 0) scale(0.996264)"/>
    <use xlink:href="#CMR17-28" transform="translate(435.87762 0) scale(0.996264)"/>
    <use xlink:href="#CMR17-73" transform="translate(471.158388 0) scale(0.996264)"/>
    <use xlink:href="#CMR17-29" transform="translate(506.959726 0) scale(0.996264)"/>
   </g>
  </g>
  <g id="patch_3">
   <path d="M 227.315875 336.384 
L 272.431422 336.384 
L 272.431422 305.794759 
L 227.315875 305.794759 
z
" style="fill: #ffffff"/>
  </g>
  <g id="text_14">
   <!-- Solver -->
   <g transform="translate(227.515875 316.344831) scale(0.11 -0.11)">
    <use xlink:href="#CMR17-53" transform="scale(0.996264)"/>
    <use xlink:href="#CMR17-6f" transform="translate(50.89537 0) scale(0.996264)"/>
    <use xlink:href="#CMR17-6c" transform="translate(96.585847 0) scale(0.996264)"/>
    <use xlink:href="#CMR17-76" transform="translate(121.456905 0) scale(0.996264)"/>
    <use xlink:href="#CMR17-65" transform="translate(167.147367 0) scale(0.996264)"/>
    <use xlink:href="#CMR17-72" transform="translate(207.633028 0) scale(0.996264)"/>
   </g>
  </g>
  <g id="patch_4">
   <path d="M 227.515875 336.184 
L 243.355875 336.184 
L 243.355875 320.344 
L 227.515875 320.344 
z
" clip-path="url(#p4a60d00068)" style="fill: #f2f2f2; stroke: #cccccc; stroke-linejoin: miter"/>
  </g>
  <g id="line2d_28">
   <path d="M 235.435875 328.264 
" clip-path="url(#p4a60d00068)" style="fill: none; stroke: #1f77b4; stroke-width: 1.5; stroke-linecap: square"/>
   <defs>
    <path id="m962b3141b2" d="M 0 1.107784 
C 0.293788 1.107784 0.575582 0.991061 0.783321 0.783321 
C 0.991061 0.575582 1.107784 0.293788 1.107784 0 
C 1.107784 -0.293788 0.991061 -0.575582 0.783321 -0.783321 
C 0.575582 -0.991061 0.293788 -1.107784 0 -1.107784 
C -0.293788 -1.107784 -0.575582 -0.991061 -0.783321 -0.783321 
C -0.991061 -0.575582 -1.107784 -0.293788 -1.107784 0 
C -1.107784 0.293788 -0.991061 0.575582 -0.783321 0.783321 
C -0.575582 0.991061 -0.293788 1.107784 0 1.107784 
z
" style="stroke: #1f77b4; stroke-width: 0.886227"/>
   </defs>
   <g clip-path="url(#p4a60d00068)">
    <use xlink:href="#m962b3141b2" x="235.435875" y="328.264" style="fill: #1f77b4; stroke: #1f77b4; stroke-width: 0.886227"/>
   </g>
  </g>
  <g id="line2d_29">
   <path d="M 227.515875 328.264 
L 243.355875 328.264 
" clip-path="url(#p4a60d00068)" style="fill: none; stroke: #1f77b4; stroke-width: 0.886227"/>
  </g>
  <g id="text_15">
   <!-- utopia -->
   <g transform="translate(246.355875 330.455785) scale(0.088 -0.088)">
    <use xlink:href="#CMR17-75" transform="scale(0.996264)"/>
    <use xlink:href="#CMR17-74" transform="translate(50.89537 0) scale(0.996264)"/>
    <use xlink:href="#CMR17-6f" transform="translate(86.176138 0) scale(0.996264)"/>
    <use xlink:href="#CMR17-70" transform="translate(131.866615 0) scale(0.996264)"/>
    <use xlink:href="#CMR17-69" transform="translate(182.761984 0) scale(0.996264)"/>
    <use xlink:href="#CMR17-61" transform="translate(207.633043 0) scale(0.996264)"/>
   </g>
  </g>
 </g>
 <defs>
  <clipPath id="p79e14357ff">
   <rect x="43.555296" y="36.715908" width="412.636704" height="228.362613"/>
  </clipPath>
  <clipPath id="p4a60d00068">
   <path d="M 227.515875 336.184 
L 227.515875 320.344 
L 243.355875 320.344 
L 243.355875 336.184 
"/>
  </clipPath>
 </defs>
</svg>
