<svg width="2068" height="432" viewBox="0 0 2068 432" fill="none" xmlns="http://www.w3.org/2000/svg">
<path d="M829.012 239.196V182.818H856.242V281H830.098V263.166H829.076C826.86 268.919 823.174 273.543 818.017 277.037C812.904 280.531 806.661 282.278 799.289 282.278C792.726 282.278 786.952 280.787 781.966 277.804C776.98 274.821 773.081 270.581 770.269 265.084C767.499 259.587 766.093 253.003 766.05 245.332V182.818H793.28V240.474C793.323 246.27 794.878 250.851 797.946 254.217C801.015 257.584 805.127 259.267 810.283 259.267C813.564 259.267 816.632 258.521 819.488 257.03C822.343 255.496 824.644 253.237 826.391 250.254C828.181 247.271 829.054 243.585 829.012 239.196ZM930.246 182.818V203.273H871.119V182.818H930.246ZM884.543 159.295H911.773V250.83C911.773 253.344 912.156 255.304 912.923 256.71C913.69 258.074 914.756 259.033 916.119 259.587C917.526 260.141 919.145 260.418 920.977 260.418C922.256 260.418 923.534 260.311 924.812 260.098C926.091 259.842 927.071 259.651 927.753 259.523L932.036 279.786C930.672 280.212 928.754 280.702 926.283 281.256C923.811 281.852 920.807 282.214 917.27 282.342C910.707 282.598 904.955 281.724 900.011 279.722C895.111 277.719 891.297 274.608 888.57 270.389C885.842 266.17 884.5 260.844 884.543 254.409V159.295ZM991.29 282.918C981.361 282.918 972.774 280.808 965.53 276.589C958.328 272.328 952.767 266.405 948.847 258.82C944.926 251.192 942.966 242.349 942.966 232.293C942.966 222.151 944.926 213.287 948.847 205.702C952.767 198.074 958.328 192.151 965.53 187.932C972.774 183.67 981.361 181.54 991.29 181.54C1001.22 181.54 1009.78 183.67 1016.99 187.932C1024.23 192.151 1029.81 198.074 1033.73 205.702C1037.65 213.287 1039.61 222.151 1039.61 232.293C1039.61 242.349 1037.65 251.192 1033.73 258.82C1029.81 266.405 1024.23 272.328 1016.99 276.589C1009.78 280.808 1001.22 282.918 991.29 282.918ZM991.418 261.824C995.935 261.824 999.706 260.545 1002.73 257.989C1005.76 255.389 1008.04 251.852 1009.57 247.378C1011.15 242.903 1011.94 237.811 1011.94 232.101C1011.94 226.391 1011.15 221.298 1009.57 216.824C1008.04 212.349 1005.76 208.812 1002.73 206.213C999.706 203.614 995.935 202.314 991.418 202.314C986.858 202.314 983.023 203.614 979.912 206.213C976.844 208.812 974.521 212.349 972.945 216.824C971.411 221.298 970.643 226.391 970.643 232.101C970.643 237.811 971.411 242.903 972.945 247.378C974.521 251.852 976.844 255.389 979.912 257.989C983.023 260.545 986.858 261.824 991.418 261.824ZM1057.32 317.818V182.818H1084.17V199.31H1085.38C1086.57 196.668 1088.3 193.983 1090.56 191.256C1092.86 188.486 1095.84 186.185 1099.51 184.352C1103.21 182.477 1107.82 181.54 1113.31 181.54C1120.47 181.54 1127.08 183.415 1133.13 187.165C1139.18 190.872 1144.02 196.476 1147.64 203.976C1151.26 211.433 1153.07 220.787 1153.07 232.037C1153.07 242.989 1151.3 252.236 1147.77 259.778C1144.27 267.278 1139.5 272.967 1133.45 276.845C1127.44 280.68 1120.71 282.598 1113.25 282.598C1107.97 282.598 1103.47 281.724 1099.76 279.977C1096.1 278.23 1093.09 276.036 1090.75 273.393C1088.41 270.709 1086.62 268.003 1085.38 265.276H1084.55V317.818H1057.32ZM1083.97 231.909C1083.97 237.747 1084.78 242.839 1086.4 247.186C1088.02 251.533 1090.37 254.92 1093.43 257.349C1096.5 259.736 1100.23 260.929 1104.62 260.929C1109.05 260.929 1112.8 259.714 1115.87 257.286C1118.94 254.814 1121.26 251.405 1122.84 247.058C1124.46 242.669 1125.27 237.619 1125.27 231.909C1125.27 226.241 1124.48 221.256 1122.9 216.952C1121.33 212.648 1119 209.281 1115.93 206.852C1112.87 204.423 1109.1 203.209 1104.62 203.209C1100.19 203.209 1096.44 204.381 1093.37 206.724C1090.35 209.068 1088.02 212.392 1086.4 216.696C1084.78 221 1083.97 226.071 1083.97 231.909ZM1171.23 281V182.818H1198.46V281H1171.23ZM1184.9 170.162C1180.86 170.162 1177.38 168.82 1174.49 166.135C1171.63 163.408 1170.2 160.148 1170.2 156.355C1170.2 152.605 1171.63 149.388 1174.49 146.703C1177.38 143.976 1180.86 142.612 1184.9 142.612C1188.95 142.612 1192.4 143.976 1195.26 146.703C1198.16 149.388 1199.61 152.605 1199.61 156.355C1199.61 160.148 1198.16 163.408 1195.26 166.135C1192.4 168.82 1188.95 170.162 1184.9 170.162ZM1248.27 282.854C1242 282.854 1236.42 281.767 1231.52 279.594C1226.62 277.378 1222.74 274.118 1219.89 269.814C1217.07 265.467 1215.67 260.055 1215.67 253.578C1215.67 248.124 1216.67 243.543 1218.67 239.835C1220.67 236.128 1223.4 233.145 1226.85 230.886C1230.3 228.628 1234.22 226.923 1238.61 225.773C1243.05 224.622 1247.69 223.812 1252.55 223.344C1258.26 222.747 1262.86 222.193 1266.36 221.682C1269.85 221.128 1272.39 220.318 1273.96 219.253C1275.54 218.187 1276.33 216.611 1276.33 214.523V214.139C1276.33 210.091 1275.05 206.959 1272.49 204.743C1269.98 202.527 1266.4 201.419 1261.75 201.419C1256.85 201.419 1252.95 202.506 1250.06 204.679C1247.16 206.81 1245.24 209.494 1244.3 212.733L1219.12 210.688C1220.4 204.722 1222.91 199.565 1226.66 195.219C1230.41 190.83 1235.25 187.463 1241.17 185.119C1247.14 182.733 1254.04 181.54 1261.88 181.54C1267.34 181.54 1272.56 182.179 1277.54 183.457C1282.57 184.736 1287.02 186.717 1290.9 189.402C1294.82 192.087 1297.91 195.538 1300.17 199.757C1302.43 203.933 1303.56 208.94 1303.56 214.778V281H1277.73V267.385H1276.97C1275.39 270.453 1273.28 273.159 1270.64 275.503C1268 277.804 1264.82 279.615 1261.11 280.936C1257.41 282.214 1253.12 282.854 1248.27 282.854ZM1256.06 264.061C1260.07 264.061 1263.61 263.273 1266.68 261.696C1269.74 260.077 1272.15 257.903 1273.9 255.176C1275.65 252.449 1276.52 249.359 1276.52 245.908V235.489C1275.67 236.043 1274.49 236.554 1273 237.023C1271.55 237.449 1269.91 237.854 1268.08 238.237C1266.25 238.578 1264.42 238.898 1262.58 239.196C1260.75 239.452 1259.09 239.686 1257.6 239.899C1254.4 240.368 1251.61 241.114 1249.22 242.136C1246.84 243.159 1244.98 244.544 1243.66 246.291C1242.34 247.996 1241.68 250.126 1241.68 252.683C1241.68 256.391 1243.02 259.224 1245.71 261.185C1248.44 263.102 1251.89 264.061 1256.06 264.061Z" fill="#3E3E3E"/>
</svg>
